G04 #@! TF.GenerationSoftware,KiCad,Pcbnew,(5.1.2-1)-1*
G04 #@! TF.CreationDate,2020-01-28T06:09:07-07:00*
G04 #@! TF.ProjectId,tiny_stick,74696e79-5f73-4746-9963-6b2e6b696361,rev?*
G04 #@! TF.SameCoordinates,Original*
G04 #@! TF.FileFunction,Soldermask,Bot*
G04 #@! TF.FilePolarity,Negative*
%FSLAX46Y46*%
G04 Gerber Fmt 4.6, Leading zero omitted, Abs format (unit mm)*
G04 Created by KiCad (PCBNEW (5.1.2-1)-1) date 2020-01-28 06:09:07*
%MOMM*%
%LPD*%
G04 APERTURE LIST*
%ADD10C,0.100000*%
G04 APERTURE END LIST*
D10*
G36*
X97675000Y-103263000D02*
G01*
X95873000Y-103263000D01*
X95873000Y-101461000D01*
X97675000Y-101461000D01*
X97675000Y-103263000D01*
X97675000Y-103263000D01*
G37*
G36*
X94344442Y-101467518D02*
G01*
X94410627Y-101474037D01*
X94580466Y-101525557D01*
X94736991Y-101609222D01*
X94772729Y-101638552D01*
X94874186Y-101721814D01*
X94957448Y-101823271D01*
X94986778Y-101859009D01*
X95070443Y-102015534D01*
X95121963Y-102185373D01*
X95139359Y-102362000D01*
X95121963Y-102538627D01*
X95070443Y-102708466D01*
X94986778Y-102864991D01*
X94957448Y-102900729D01*
X94874186Y-103002186D01*
X94772729Y-103085448D01*
X94736991Y-103114778D01*
X94580466Y-103198443D01*
X94410627Y-103249963D01*
X94344442Y-103256482D01*
X94278260Y-103263000D01*
X94189740Y-103263000D01*
X94123558Y-103256482D01*
X94057373Y-103249963D01*
X93887534Y-103198443D01*
X93731009Y-103114778D01*
X93695271Y-103085448D01*
X93593814Y-103002186D01*
X93510552Y-102900729D01*
X93481222Y-102864991D01*
X93397557Y-102708466D01*
X93346037Y-102538627D01*
X93328641Y-102362000D01*
X93346037Y-102185373D01*
X93397557Y-102015534D01*
X93481222Y-101859009D01*
X93510552Y-101823271D01*
X93593814Y-101721814D01*
X93695271Y-101638552D01*
X93731009Y-101609222D01*
X93887534Y-101525557D01*
X94057373Y-101474037D01*
X94123558Y-101467518D01*
X94189740Y-101461000D01*
X94278260Y-101461000D01*
X94344442Y-101467518D01*
X94344442Y-101467518D01*
G37*
G36*
X143112442Y-100197518D02*
G01*
X143178627Y-100204037D01*
X143348466Y-100255557D01*
X143504991Y-100339222D01*
X143540729Y-100368552D01*
X143642186Y-100451814D01*
X143725448Y-100553271D01*
X143754778Y-100589009D01*
X143838443Y-100745534D01*
X143889963Y-100915373D01*
X143907359Y-101092000D01*
X143889963Y-101268627D01*
X143838443Y-101438466D01*
X143754778Y-101594991D01*
X143725448Y-101630729D01*
X143642186Y-101732186D01*
X143540729Y-101815448D01*
X143504991Y-101844778D01*
X143348466Y-101928443D01*
X143178627Y-101979963D01*
X143112442Y-101986482D01*
X143046260Y-101993000D01*
X142957740Y-101993000D01*
X142891558Y-101986482D01*
X142825373Y-101979963D01*
X142655534Y-101928443D01*
X142499009Y-101844778D01*
X142463271Y-101815448D01*
X142361814Y-101732186D01*
X142278552Y-101630729D01*
X142249222Y-101594991D01*
X142165557Y-101438466D01*
X142114037Y-101268627D01*
X142096641Y-101092000D01*
X142114037Y-100915373D01*
X142165557Y-100745534D01*
X142249222Y-100589009D01*
X142278552Y-100553271D01*
X142361814Y-100451814D01*
X142463271Y-100368552D01*
X142499009Y-100339222D01*
X142655534Y-100255557D01*
X142825373Y-100204037D01*
X142891558Y-100197518D01*
X142957740Y-100191000D01*
X143046260Y-100191000D01*
X143112442Y-100197518D01*
X143112442Y-100197518D01*
G37*
G36*
X114664443Y-99943519D02*
G01*
X114730627Y-99950037D01*
X114900466Y-100001557D01*
X115056991Y-100085222D01*
X115092729Y-100114552D01*
X115194186Y-100197814D01*
X115277448Y-100299271D01*
X115306778Y-100335009D01*
X115390443Y-100491534D01*
X115441963Y-100661373D01*
X115459359Y-100838000D01*
X115441963Y-101014627D01*
X115390443Y-101184466D01*
X115306778Y-101340991D01*
X115277448Y-101376729D01*
X115194186Y-101478186D01*
X115092729Y-101561448D01*
X115056991Y-101590778D01*
X114900466Y-101674443D01*
X114730627Y-101725963D01*
X114667453Y-101732185D01*
X114598260Y-101739000D01*
X114509740Y-101739000D01*
X114440547Y-101732185D01*
X114377373Y-101725963D01*
X114207534Y-101674443D01*
X114051009Y-101590778D01*
X114015271Y-101561448D01*
X113913814Y-101478186D01*
X113830552Y-101376729D01*
X113801222Y-101340991D01*
X113717557Y-101184466D01*
X113666037Y-101014627D01*
X113648641Y-100838000D01*
X113666037Y-100661373D01*
X113717557Y-100491534D01*
X113801222Y-100335009D01*
X113830552Y-100299271D01*
X113913814Y-100197814D01*
X114015271Y-100114552D01*
X114051009Y-100085222D01*
X114207534Y-100001557D01*
X114377373Y-99950037D01*
X114443557Y-99943519D01*
X114509740Y-99937000D01*
X114598260Y-99937000D01*
X114664443Y-99943519D01*
X114664443Y-99943519D01*
G37*
G36*
X87994443Y-99943519D02*
G01*
X88060627Y-99950037D01*
X88230466Y-100001557D01*
X88386991Y-100085222D01*
X88422729Y-100114552D01*
X88524186Y-100197814D01*
X88607448Y-100299271D01*
X88636778Y-100335009D01*
X88720443Y-100491534D01*
X88771963Y-100661373D01*
X88789359Y-100838000D01*
X88771963Y-101014627D01*
X88720443Y-101184466D01*
X88636778Y-101340991D01*
X88607448Y-101376729D01*
X88524186Y-101478186D01*
X88422729Y-101561448D01*
X88386991Y-101590778D01*
X88230466Y-101674443D01*
X88060627Y-101725963D01*
X87997453Y-101732185D01*
X87928260Y-101739000D01*
X87839740Y-101739000D01*
X87770547Y-101732185D01*
X87707373Y-101725963D01*
X87537534Y-101674443D01*
X87381009Y-101590778D01*
X87345271Y-101561448D01*
X87243814Y-101478186D01*
X87160552Y-101376729D01*
X87131222Y-101340991D01*
X87047557Y-101184466D01*
X86996037Y-101014627D01*
X86978641Y-100838000D01*
X86996037Y-100661373D01*
X87047557Y-100491534D01*
X87131222Y-100335009D01*
X87160552Y-100299271D01*
X87243814Y-100197814D01*
X87345271Y-100114552D01*
X87381009Y-100085222D01*
X87537534Y-100001557D01*
X87707373Y-99950037D01*
X87773557Y-99943519D01*
X87839740Y-99937000D01*
X87928260Y-99937000D01*
X87994443Y-99943519D01*
X87994443Y-99943519D01*
G37*
G36*
X121693000Y-99849000D02*
G01*
X118591000Y-99849000D01*
X118591000Y-96747000D01*
X121693000Y-96747000D01*
X121693000Y-99849000D01*
X121693000Y-99849000D01*
G37*
G36*
X143112443Y-97657519D02*
G01*
X143178627Y-97664037D01*
X143348466Y-97715557D01*
X143504991Y-97799222D01*
X143540729Y-97828552D01*
X143642186Y-97911814D01*
X143725448Y-98013271D01*
X143754778Y-98049009D01*
X143838443Y-98205534D01*
X143889963Y-98375373D01*
X143907359Y-98552000D01*
X143889963Y-98728627D01*
X143838443Y-98898466D01*
X143754778Y-99054991D01*
X143725448Y-99090729D01*
X143642186Y-99192186D01*
X143540729Y-99275448D01*
X143504991Y-99304778D01*
X143348466Y-99388443D01*
X143178627Y-99439963D01*
X143112443Y-99446481D01*
X143046260Y-99453000D01*
X142957740Y-99453000D01*
X142891557Y-99446481D01*
X142825373Y-99439963D01*
X142655534Y-99388443D01*
X142499009Y-99304778D01*
X142463271Y-99275448D01*
X142361814Y-99192186D01*
X142278552Y-99090729D01*
X142249222Y-99054991D01*
X142165557Y-98898466D01*
X142114037Y-98728627D01*
X142096641Y-98552000D01*
X142114037Y-98375373D01*
X142165557Y-98205534D01*
X142249222Y-98049009D01*
X142278552Y-98013271D01*
X142361814Y-97911814D01*
X142463271Y-97828552D01*
X142499009Y-97799222D01*
X142655534Y-97715557D01*
X142825373Y-97664037D01*
X142891557Y-97657519D01*
X142957740Y-97651000D01*
X143046260Y-97651000D01*
X143112443Y-97657519D01*
X143112443Y-97657519D01*
G37*
G36*
X87994442Y-97403518D02*
G01*
X88060627Y-97410037D01*
X88230466Y-97461557D01*
X88386991Y-97545222D01*
X88422729Y-97574552D01*
X88524186Y-97657814D01*
X88607448Y-97759271D01*
X88636778Y-97795009D01*
X88720443Y-97951534D01*
X88771963Y-98121373D01*
X88789359Y-98298000D01*
X88771963Y-98474627D01*
X88720443Y-98644466D01*
X88636778Y-98800991D01*
X88607448Y-98836729D01*
X88524186Y-98938186D01*
X88422729Y-99021448D01*
X88386991Y-99050778D01*
X88230466Y-99134443D01*
X88060627Y-99185963D01*
X87997453Y-99192185D01*
X87928260Y-99199000D01*
X87839740Y-99199000D01*
X87770547Y-99192185D01*
X87707373Y-99185963D01*
X87537534Y-99134443D01*
X87381009Y-99050778D01*
X87345271Y-99021448D01*
X87243814Y-98938186D01*
X87160552Y-98836729D01*
X87131222Y-98800991D01*
X87047557Y-98644466D01*
X86996037Y-98474627D01*
X86978641Y-98298000D01*
X86996037Y-98121373D01*
X87047557Y-97951534D01*
X87131222Y-97795009D01*
X87160552Y-97759271D01*
X87243814Y-97657814D01*
X87345271Y-97574552D01*
X87381009Y-97545222D01*
X87537534Y-97461557D01*
X87707373Y-97410037D01*
X87773558Y-97403518D01*
X87839740Y-97397000D01*
X87928260Y-97397000D01*
X87994442Y-97403518D01*
X87994442Y-97403518D01*
G37*
G36*
X114664442Y-97403518D02*
G01*
X114730627Y-97410037D01*
X114900466Y-97461557D01*
X115056991Y-97545222D01*
X115092729Y-97574552D01*
X115194186Y-97657814D01*
X115277448Y-97759271D01*
X115306778Y-97795009D01*
X115390443Y-97951534D01*
X115441963Y-98121373D01*
X115459359Y-98298000D01*
X115441963Y-98474627D01*
X115390443Y-98644466D01*
X115306778Y-98800991D01*
X115277448Y-98836729D01*
X115194186Y-98938186D01*
X115092729Y-99021448D01*
X115056991Y-99050778D01*
X114900466Y-99134443D01*
X114730627Y-99185963D01*
X114667453Y-99192185D01*
X114598260Y-99199000D01*
X114509740Y-99199000D01*
X114440547Y-99192185D01*
X114377373Y-99185963D01*
X114207534Y-99134443D01*
X114051009Y-99050778D01*
X114015271Y-99021448D01*
X113913814Y-98938186D01*
X113830552Y-98836729D01*
X113801222Y-98800991D01*
X113717557Y-98644466D01*
X113666037Y-98474627D01*
X113648641Y-98298000D01*
X113666037Y-98121373D01*
X113717557Y-97951534D01*
X113801222Y-97795009D01*
X113830552Y-97759271D01*
X113913814Y-97657814D01*
X114015271Y-97574552D01*
X114051009Y-97545222D01*
X114207534Y-97461557D01*
X114377373Y-97410037D01*
X114443558Y-97403518D01*
X114509740Y-97397000D01*
X114598260Y-97397000D01*
X114664442Y-97403518D01*
X114664442Y-97403518D01*
G37*
G36*
X129650442Y-95117518D02*
G01*
X129716627Y-95124037D01*
X129886466Y-95175557D01*
X130042991Y-95259222D01*
X130078729Y-95288552D01*
X130180186Y-95371814D01*
X130263448Y-95473271D01*
X130292778Y-95509009D01*
X130376443Y-95665534D01*
X130427963Y-95835373D01*
X130445359Y-96012000D01*
X130427963Y-96188627D01*
X130376443Y-96358466D01*
X130292778Y-96514991D01*
X130263448Y-96550729D01*
X130180186Y-96652186D01*
X130078729Y-96735448D01*
X130042991Y-96764778D01*
X129886466Y-96848443D01*
X129716627Y-96899963D01*
X129650443Y-96906481D01*
X129584260Y-96913000D01*
X129495740Y-96913000D01*
X129429557Y-96906481D01*
X129363373Y-96899963D01*
X129193534Y-96848443D01*
X129037009Y-96764778D01*
X129001271Y-96735448D01*
X128899814Y-96652186D01*
X128816552Y-96550729D01*
X128787222Y-96514991D01*
X128703557Y-96358466D01*
X128652037Y-96188627D01*
X128634641Y-96012000D01*
X128652037Y-95835373D01*
X128703557Y-95665534D01*
X128787222Y-95509009D01*
X128816552Y-95473271D01*
X128899814Y-95371814D01*
X129001271Y-95288552D01*
X129037009Y-95259222D01*
X129193534Y-95175557D01*
X129363373Y-95124037D01*
X129429558Y-95117518D01*
X129495740Y-95111000D01*
X129584260Y-95111000D01*
X129650442Y-95117518D01*
X129650442Y-95117518D01*
G37*
G36*
X127901000Y-96913000D02*
G01*
X126099000Y-96913000D01*
X126099000Y-95111000D01*
X127901000Y-95111000D01*
X127901000Y-96913000D01*
X127901000Y-96913000D01*
G37*
G36*
X132190442Y-95117518D02*
G01*
X132256627Y-95124037D01*
X132426466Y-95175557D01*
X132582991Y-95259222D01*
X132618729Y-95288552D01*
X132720186Y-95371814D01*
X132803448Y-95473271D01*
X132832778Y-95509009D01*
X132916443Y-95665534D01*
X132967963Y-95835373D01*
X132985359Y-96012000D01*
X132967963Y-96188627D01*
X132916443Y-96358466D01*
X132832778Y-96514991D01*
X132803448Y-96550729D01*
X132720186Y-96652186D01*
X132618729Y-96735448D01*
X132582991Y-96764778D01*
X132426466Y-96848443D01*
X132256627Y-96899963D01*
X132190443Y-96906481D01*
X132124260Y-96913000D01*
X132035740Y-96913000D01*
X131969557Y-96906481D01*
X131903373Y-96899963D01*
X131733534Y-96848443D01*
X131577009Y-96764778D01*
X131541271Y-96735448D01*
X131439814Y-96652186D01*
X131356552Y-96550729D01*
X131327222Y-96514991D01*
X131243557Y-96358466D01*
X131192037Y-96188627D01*
X131174641Y-96012000D01*
X131192037Y-95835373D01*
X131243557Y-95665534D01*
X131327222Y-95509009D01*
X131356552Y-95473271D01*
X131439814Y-95371814D01*
X131541271Y-95288552D01*
X131577009Y-95259222D01*
X131733534Y-95175557D01*
X131903373Y-95124037D01*
X131969558Y-95117518D01*
X132035740Y-95111000D01*
X132124260Y-95111000D01*
X132190442Y-95117518D01*
X132190442Y-95117518D01*
G37*
G36*
X143903000Y-96913000D02*
G01*
X142101000Y-96913000D01*
X142101000Y-95111000D01*
X143903000Y-95111000D01*
X143903000Y-96913000D01*
X143903000Y-96913000D01*
G37*
G36*
X115455000Y-96659000D02*
G01*
X113653000Y-96659000D01*
X113653000Y-94857000D01*
X115455000Y-94857000D01*
X115455000Y-96659000D01*
X115455000Y-96659000D01*
G37*
G36*
X88785000Y-96659000D02*
G01*
X86983000Y-96659000D01*
X86983000Y-94857000D01*
X88785000Y-94857000D01*
X88785000Y-96659000D01*
X88785000Y-96659000D01*
G37*
G36*
X136987494Y-78502233D02*
G01*
X137159895Y-78554531D01*
X137318783Y-78639458D01*
X137458049Y-78753751D01*
X137572342Y-78893017D01*
X137657269Y-79051905D01*
X137709567Y-79224306D01*
X137722800Y-79358669D01*
X137722800Y-80769331D01*
X137709567Y-80903694D01*
X137657269Y-81076095D01*
X137572342Y-81234983D01*
X137458049Y-81374249D01*
X137318783Y-81488542D01*
X137159894Y-81573469D01*
X136987493Y-81625767D01*
X136808200Y-81643425D01*
X136628906Y-81625767D01*
X136456505Y-81573469D01*
X136297617Y-81488542D01*
X136158351Y-81374249D01*
X136044058Y-81234983D01*
X135959131Y-81076094D01*
X135906833Y-80903693D01*
X135893600Y-80769330D01*
X135893601Y-79358669D01*
X135906834Y-79224306D01*
X135959132Y-79051905D01*
X136044059Y-78893017D01*
X136158352Y-78753751D01*
X136297618Y-78639458D01*
X136456506Y-78554531D01*
X136628907Y-78502233D01*
X136808200Y-78484575D01*
X136987494Y-78502233D01*
X136987494Y-78502233D01*
G37*
G36*
X141987494Y-78502233D02*
G01*
X142159895Y-78554531D01*
X142318783Y-78639458D01*
X142458049Y-78753751D01*
X142572342Y-78893017D01*
X142657269Y-79051905D01*
X142709567Y-79224306D01*
X142722800Y-79358669D01*
X142722800Y-80769331D01*
X142709567Y-80903694D01*
X142657269Y-81076095D01*
X142572342Y-81234983D01*
X142458049Y-81374249D01*
X142318783Y-81488542D01*
X142159894Y-81573469D01*
X141987493Y-81625767D01*
X141808200Y-81643425D01*
X141628906Y-81625767D01*
X141456505Y-81573469D01*
X141297617Y-81488542D01*
X141158351Y-81374249D01*
X141044058Y-81234983D01*
X140959131Y-81076094D01*
X140906833Y-80903693D01*
X140893600Y-80769330D01*
X140893601Y-79358669D01*
X140906834Y-79224306D01*
X140959132Y-79051905D01*
X141044059Y-78893017D01*
X141158352Y-78753751D01*
X141297618Y-78639458D01*
X141456506Y-78554531D01*
X141628907Y-78502233D01*
X141808200Y-78484575D01*
X141987494Y-78502233D01*
X141987494Y-78502233D01*
G37*
G36*
X95467623Y-79145913D02*
G01*
X95628042Y-79194576D01*
X95760706Y-79265486D01*
X95775878Y-79273596D01*
X95905459Y-79379941D01*
X96011804Y-79509522D01*
X96011805Y-79509524D01*
X96090824Y-79657358D01*
X96139487Y-79817777D01*
X96155917Y-79984600D01*
X96139487Y-80151423D01*
X96090824Y-80311842D01*
X96019914Y-80444506D01*
X96011804Y-80459678D01*
X95905459Y-80589259D01*
X95775878Y-80695604D01*
X95775876Y-80695605D01*
X95628042Y-80774624D01*
X95467623Y-80823287D01*
X95342604Y-80835600D01*
X95258996Y-80835600D01*
X95133977Y-80823287D01*
X94973558Y-80774624D01*
X94825724Y-80695605D01*
X94825722Y-80695604D01*
X94696141Y-80589259D01*
X94589796Y-80459678D01*
X94581686Y-80444506D01*
X94510776Y-80311842D01*
X94462113Y-80151423D01*
X94445683Y-79984600D01*
X94462113Y-79817777D01*
X94510776Y-79657358D01*
X94589795Y-79509524D01*
X94589796Y-79509522D01*
X94696141Y-79379941D01*
X94825722Y-79273596D01*
X94840894Y-79265486D01*
X94973558Y-79194576D01*
X95133977Y-79145913D01*
X95258996Y-79133600D01*
X95342604Y-79133600D01*
X95467623Y-79145913D01*
X95467623Y-79145913D01*
G37*
G36*
X87847623Y-79145913D02*
G01*
X88008042Y-79194576D01*
X88140706Y-79265486D01*
X88155878Y-79273596D01*
X88285459Y-79379941D01*
X88391804Y-79509522D01*
X88391805Y-79509524D01*
X88470824Y-79657358D01*
X88519487Y-79817777D01*
X88535917Y-79984600D01*
X88519487Y-80151423D01*
X88470824Y-80311842D01*
X88399914Y-80444506D01*
X88391804Y-80459678D01*
X88285459Y-80589259D01*
X88155878Y-80695604D01*
X88155876Y-80695605D01*
X88008042Y-80774624D01*
X87847623Y-80823287D01*
X87722604Y-80835600D01*
X87638996Y-80835600D01*
X87513977Y-80823287D01*
X87353558Y-80774624D01*
X87205724Y-80695605D01*
X87205722Y-80695604D01*
X87076141Y-80589259D01*
X86969796Y-80459678D01*
X86961686Y-80444506D01*
X86890776Y-80311842D01*
X86842113Y-80151423D01*
X86825683Y-79984600D01*
X86842113Y-79817777D01*
X86890776Y-79657358D01*
X86969795Y-79509524D01*
X86969796Y-79509522D01*
X87076141Y-79379941D01*
X87205722Y-79273596D01*
X87220894Y-79265486D01*
X87353558Y-79194576D01*
X87513977Y-79145913D01*
X87638996Y-79133600D01*
X87722604Y-79133600D01*
X87847623Y-79145913D01*
X87847623Y-79145913D01*
G37*
G36*
X120344585Y-77476802D02*
G01*
X120494410Y-77506604D01*
X120776674Y-77623521D01*
X121030705Y-77793259D01*
X121246741Y-78009295D01*
X121416479Y-78263326D01*
X121533396Y-78545590D01*
X121552067Y-78639458D01*
X121593000Y-78845239D01*
X121593000Y-79150761D01*
X121578371Y-79224306D01*
X121533396Y-79450410D01*
X121416479Y-79732674D01*
X121246741Y-79986705D01*
X121030705Y-80202741D01*
X120776674Y-80372479D01*
X120494410Y-80489396D01*
X120344585Y-80519198D01*
X120194761Y-80549000D01*
X119889239Y-80549000D01*
X119739415Y-80519198D01*
X119589590Y-80489396D01*
X119307326Y-80372479D01*
X119053295Y-80202741D01*
X118837259Y-79986705D01*
X118667521Y-79732674D01*
X118550604Y-79450410D01*
X118505629Y-79224306D01*
X118491000Y-79150761D01*
X118491000Y-78845239D01*
X118531933Y-78639458D01*
X118550604Y-78545590D01*
X118667521Y-78263326D01*
X118837259Y-78009295D01*
X119053295Y-77793259D01*
X119307326Y-77623521D01*
X119589590Y-77506604D01*
X119739415Y-77476802D01*
X119889239Y-77447000D01*
X120194761Y-77447000D01*
X120344585Y-77476802D01*
X120344585Y-77476802D01*
G37*
G36*
X106536442Y-77591518D02*
G01*
X106602627Y-77598037D01*
X106772466Y-77649557D01*
X106928991Y-77733222D01*
X106964729Y-77762552D01*
X107066186Y-77845814D01*
X107149448Y-77947271D01*
X107178778Y-77983009D01*
X107262443Y-78139534D01*
X107313963Y-78309373D01*
X107331359Y-78486000D01*
X107313963Y-78662627D01*
X107262443Y-78832466D01*
X107178778Y-78988991D01*
X107149448Y-79024729D01*
X107066186Y-79126186D01*
X106982851Y-79194576D01*
X106928991Y-79238778D01*
X106772466Y-79322443D01*
X106602627Y-79373963D01*
X106541930Y-79379941D01*
X106470260Y-79387000D01*
X106381740Y-79387000D01*
X106310070Y-79379941D01*
X106249373Y-79373963D01*
X106079534Y-79322443D01*
X105923009Y-79238778D01*
X105869149Y-79194576D01*
X105785814Y-79126186D01*
X105702552Y-79024729D01*
X105673222Y-78988991D01*
X105589557Y-78832466D01*
X105538037Y-78662627D01*
X105520641Y-78486000D01*
X105538037Y-78309373D01*
X105589557Y-78139534D01*
X105673222Y-77983009D01*
X105702552Y-77947271D01*
X105785814Y-77845814D01*
X105887271Y-77762552D01*
X105923009Y-77733222D01*
X106079534Y-77649557D01*
X106249373Y-77598037D01*
X106315558Y-77591518D01*
X106381740Y-77585000D01*
X106470260Y-77585000D01*
X106536442Y-77591518D01*
X106536442Y-77591518D01*
G37*
G36*
X95467623Y-76605913D02*
G01*
X95628042Y-76654576D01*
X95760706Y-76725486D01*
X95775878Y-76733596D01*
X95905459Y-76839941D01*
X96011804Y-76969522D01*
X96011805Y-76969524D01*
X96090824Y-77117358D01*
X96139487Y-77277777D01*
X96155917Y-77444598D01*
X96155917Y-77444600D01*
X96152681Y-77477460D01*
X96139487Y-77611423D01*
X96090824Y-77771842D01*
X96019914Y-77904506D01*
X96011804Y-77919678D01*
X95905459Y-78049259D01*
X95775878Y-78155604D01*
X95775876Y-78155605D01*
X95628042Y-78234624D01*
X95467623Y-78283287D01*
X95342604Y-78295600D01*
X95258996Y-78295600D01*
X95133977Y-78283287D01*
X94973558Y-78234624D01*
X94825724Y-78155605D01*
X94825722Y-78155604D01*
X94696141Y-78049259D01*
X94589796Y-77919678D01*
X94581686Y-77904506D01*
X94510776Y-77771842D01*
X94462113Y-77611423D01*
X94448919Y-77477460D01*
X94445683Y-77444600D01*
X94445683Y-77444598D01*
X94462113Y-77277777D01*
X94510776Y-77117358D01*
X94589795Y-76969524D01*
X94589796Y-76969522D01*
X94696141Y-76839941D01*
X94825722Y-76733596D01*
X94840894Y-76725486D01*
X94973558Y-76654576D01*
X95133977Y-76605913D01*
X95258996Y-76593600D01*
X95342604Y-76593600D01*
X95467623Y-76605913D01*
X95467623Y-76605913D01*
G37*
G36*
X87847623Y-76605913D02*
G01*
X88008042Y-76654576D01*
X88140706Y-76725486D01*
X88155878Y-76733596D01*
X88285459Y-76839941D01*
X88391804Y-76969522D01*
X88391805Y-76969524D01*
X88470824Y-77117358D01*
X88519487Y-77277777D01*
X88535917Y-77444598D01*
X88535917Y-77444600D01*
X88532681Y-77477460D01*
X88519487Y-77611423D01*
X88470824Y-77771842D01*
X88399914Y-77904506D01*
X88391804Y-77919678D01*
X88285459Y-78049259D01*
X88155878Y-78155604D01*
X88155876Y-78155605D01*
X88008042Y-78234624D01*
X87847623Y-78283287D01*
X87722604Y-78295600D01*
X87638996Y-78295600D01*
X87513977Y-78283287D01*
X87353558Y-78234624D01*
X87205724Y-78155605D01*
X87205722Y-78155604D01*
X87076141Y-78049259D01*
X86969796Y-77919678D01*
X86961686Y-77904506D01*
X86890776Y-77771842D01*
X86842113Y-77611423D01*
X86828919Y-77477460D01*
X86825683Y-77444600D01*
X86825683Y-77444598D01*
X86842113Y-77277777D01*
X86890776Y-77117358D01*
X86969795Y-76969524D01*
X86969796Y-76969522D01*
X87076141Y-76839941D01*
X87205722Y-76733596D01*
X87220894Y-76725486D01*
X87353558Y-76654576D01*
X87513977Y-76605913D01*
X87638996Y-76593600D01*
X87722604Y-76593600D01*
X87847623Y-76605913D01*
X87847623Y-76605913D01*
G37*
G36*
X106536442Y-75051518D02*
G01*
X106602627Y-75058037D01*
X106772466Y-75109557D01*
X106928991Y-75193222D01*
X106964729Y-75222552D01*
X107066186Y-75305814D01*
X107149448Y-75407271D01*
X107178778Y-75443009D01*
X107262443Y-75599534D01*
X107313963Y-75769373D01*
X107331359Y-75946000D01*
X107313963Y-76122627D01*
X107262443Y-76292466D01*
X107178778Y-76448991D01*
X107149448Y-76484729D01*
X107066186Y-76586186D01*
X106982851Y-76654576D01*
X106928991Y-76698778D01*
X106772466Y-76782443D01*
X106602627Y-76833963D01*
X106541930Y-76839941D01*
X106470260Y-76847000D01*
X106381740Y-76847000D01*
X106310070Y-76839941D01*
X106249373Y-76833963D01*
X106079534Y-76782443D01*
X105923009Y-76698778D01*
X105869149Y-76654576D01*
X105785814Y-76586186D01*
X105702552Y-76484729D01*
X105673222Y-76448991D01*
X105589557Y-76292466D01*
X105538037Y-76122627D01*
X105520641Y-75946000D01*
X105538037Y-75769373D01*
X105589557Y-75599534D01*
X105673222Y-75443009D01*
X105702552Y-75407271D01*
X105785814Y-75305814D01*
X105887271Y-75222552D01*
X105923009Y-75193222D01*
X106079534Y-75109557D01*
X106249373Y-75058037D01*
X106315558Y-75051518D01*
X106381740Y-75045000D01*
X106470260Y-75045000D01*
X106536442Y-75051518D01*
X106536442Y-75051518D01*
G37*
G36*
X87847623Y-74065913D02*
G01*
X88008042Y-74114576D01*
X88140706Y-74185486D01*
X88155878Y-74193596D01*
X88285459Y-74299941D01*
X88391804Y-74429522D01*
X88391805Y-74429524D01*
X88470824Y-74577358D01*
X88519487Y-74737777D01*
X88535917Y-74904600D01*
X88519487Y-75071423D01*
X88470824Y-75231842D01*
X88399914Y-75364506D01*
X88391804Y-75379678D01*
X88285459Y-75509259D01*
X88155878Y-75615604D01*
X88155876Y-75615605D01*
X88008042Y-75694624D01*
X87847623Y-75743287D01*
X87722604Y-75755600D01*
X87638996Y-75755600D01*
X87513977Y-75743287D01*
X87353558Y-75694624D01*
X87205724Y-75615605D01*
X87205722Y-75615604D01*
X87076141Y-75509259D01*
X86969796Y-75379678D01*
X86961686Y-75364506D01*
X86890776Y-75231842D01*
X86842113Y-75071423D01*
X86825683Y-74904600D01*
X86842113Y-74737777D01*
X86890776Y-74577358D01*
X86969795Y-74429524D01*
X86969796Y-74429522D01*
X87076141Y-74299941D01*
X87205722Y-74193596D01*
X87220894Y-74185486D01*
X87353558Y-74114576D01*
X87513977Y-74065913D01*
X87638996Y-74053600D01*
X87722604Y-74053600D01*
X87847623Y-74065913D01*
X87847623Y-74065913D01*
G37*
G36*
X95467623Y-74065913D02*
G01*
X95628042Y-74114576D01*
X95760706Y-74185486D01*
X95775878Y-74193596D01*
X95905459Y-74299941D01*
X96011804Y-74429522D01*
X96011805Y-74429524D01*
X96090824Y-74577358D01*
X96139487Y-74737777D01*
X96155917Y-74904600D01*
X96139487Y-75071423D01*
X96090824Y-75231842D01*
X96019914Y-75364506D01*
X96011804Y-75379678D01*
X95905459Y-75509259D01*
X95775878Y-75615604D01*
X95775876Y-75615605D01*
X95628042Y-75694624D01*
X95467623Y-75743287D01*
X95342604Y-75755600D01*
X95258996Y-75755600D01*
X95133977Y-75743287D01*
X94973558Y-75694624D01*
X94825724Y-75615605D01*
X94825722Y-75615604D01*
X94696141Y-75509259D01*
X94589796Y-75379678D01*
X94581686Y-75364506D01*
X94510776Y-75231842D01*
X94462113Y-75071423D01*
X94445683Y-74904600D01*
X94462113Y-74737777D01*
X94510776Y-74577358D01*
X94589795Y-74429524D01*
X94589796Y-74429522D01*
X94696141Y-74299941D01*
X94825722Y-74193596D01*
X94840894Y-74185486D01*
X94973558Y-74114576D01*
X95133977Y-74065913D01*
X95258996Y-74053600D01*
X95342604Y-74053600D01*
X95467623Y-74065913D01*
X95467623Y-74065913D01*
G37*
G36*
X107327000Y-74307000D02*
G01*
X105525000Y-74307000D01*
X105525000Y-72505000D01*
X107327000Y-72505000D01*
X107327000Y-74307000D01*
X107327000Y-74307000D01*
G37*
G36*
X88531800Y-73215600D02*
G01*
X86829800Y-73215600D01*
X86829800Y-71513600D01*
X88531800Y-71513600D01*
X88531800Y-73215600D01*
X88531800Y-73215600D01*
G37*
G36*
X95467623Y-71525913D02*
G01*
X95628042Y-71574576D01*
X95760706Y-71645486D01*
X95775878Y-71653596D01*
X95905459Y-71759941D01*
X96011804Y-71889522D01*
X96011805Y-71889524D01*
X96090824Y-72037358D01*
X96139487Y-72197777D01*
X96155917Y-72364600D01*
X96139487Y-72531423D01*
X96090824Y-72691842D01*
X96019914Y-72824506D01*
X96011804Y-72839678D01*
X95905459Y-72969259D01*
X95775878Y-73075604D01*
X95775876Y-73075605D01*
X95628042Y-73154624D01*
X95467623Y-73203287D01*
X95342604Y-73215600D01*
X95258996Y-73215600D01*
X95133977Y-73203287D01*
X94973558Y-73154624D01*
X94825724Y-73075605D01*
X94825722Y-73075604D01*
X94696141Y-72969259D01*
X94589796Y-72839678D01*
X94581686Y-72824506D01*
X94510776Y-72691842D01*
X94462113Y-72531423D01*
X94445683Y-72364600D01*
X94462113Y-72197777D01*
X94510776Y-72037358D01*
X94589795Y-71889524D01*
X94589796Y-71889522D01*
X94696141Y-71759941D01*
X94825722Y-71653596D01*
X94840894Y-71645486D01*
X94973558Y-71574576D01*
X95133977Y-71525913D01*
X95258996Y-71513600D01*
X95342604Y-71513600D01*
X95467623Y-71525913D01*
X95467623Y-71525913D01*
G37*
G36*
X136987494Y-66002233D02*
G01*
X137159895Y-66054531D01*
X137318783Y-66139458D01*
X137458049Y-66253751D01*
X137572342Y-66393017D01*
X137657269Y-66551905D01*
X137709567Y-66724306D01*
X137722800Y-66858669D01*
X137722800Y-68269331D01*
X137709567Y-68403694D01*
X137657269Y-68576095D01*
X137572342Y-68734983D01*
X137458049Y-68874249D01*
X137318783Y-68988542D01*
X137159894Y-69073469D01*
X136987493Y-69125767D01*
X136808200Y-69143425D01*
X136628906Y-69125767D01*
X136456505Y-69073469D01*
X136297617Y-68988542D01*
X136158351Y-68874249D01*
X136044058Y-68734983D01*
X135959131Y-68576094D01*
X135906833Y-68403693D01*
X135893600Y-68269330D01*
X135893601Y-66858669D01*
X135906834Y-66724306D01*
X135959132Y-66551905D01*
X136044059Y-66393017D01*
X136158352Y-66253751D01*
X136297618Y-66139458D01*
X136456506Y-66054531D01*
X136628907Y-66002233D01*
X136808200Y-65984575D01*
X136987494Y-66002233D01*
X136987494Y-66002233D01*
G37*
G36*
X141987494Y-66002233D02*
G01*
X142159895Y-66054531D01*
X142318783Y-66139458D01*
X142458049Y-66253751D01*
X142572342Y-66393017D01*
X142657269Y-66551905D01*
X142709567Y-66724306D01*
X142722800Y-66858669D01*
X142722800Y-68269331D01*
X142709567Y-68403694D01*
X142657269Y-68576095D01*
X142572342Y-68734983D01*
X142458049Y-68874249D01*
X142318783Y-68988542D01*
X142159894Y-69073469D01*
X141987493Y-69125767D01*
X141808200Y-69143425D01*
X141628906Y-69125767D01*
X141456505Y-69073469D01*
X141297617Y-68988542D01*
X141158351Y-68874249D01*
X141044058Y-68734983D01*
X140959131Y-68576094D01*
X140906833Y-68403693D01*
X140893600Y-68269330D01*
X140893601Y-66858669D01*
X140906834Y-66724306D01*
X140959132Y-66551905D01*
X141044059Y-66393017D01*
X141158352Y-66253751D01*
X141297618Y-66139458D01*
X141456506Y-66054531D01*
X141628907Y-66002233D01*
X141808200Y-65984575D01*
X141987494Y-66002233D01*
X141987494Y-66002233D01*
G37*
G36*
X129764549Y-66816116D02*
G01*
X129875734Y-66838232D01*
X130085203Y-66924997D01*
X130273720Y-67050960D01*
X130434040Y-67211280D01*
X130560003Y-67399797D01*
X130646768Y-67609266D01*
X130691000Y-67831636D01*
X130691000Y-68058364D01*
X130646768Y-68280734D01*
X130560003Y-68490203D01*
X130434040Y-68678720D01*
X130273720Y-68839040D01*
X130085203Y-68965003D01*
X129875734Y-69051768D01*
X129766640Y-69073468D01*
X129653365Y-69096000D01*
X129426635Y-69096000D01*
X129313360Y-69073468D01*
X129204266Y-69051768D01*
X128994797Y-68965003D01*
X128806280Y-68839040D01*
X128645960Y-68678720D01*
X128519997Y-68490203D01*
X128433232Y-68280734D01*
X128389000Y-68058364D01*
X128389000Y-67831636D01*
X128433232Y-67609266D01*
X128519997Y-67399797D01*
X128645960Y-67211280D01*
X128806280Y-67050960D01*
X128994797Y-66924997D01*
X129204266Y-66838232D01*
X129315451Y-66816116D01*
X129426635Y-66794000D01*
X129653365Y-66794000D01*
X129764549Y-66816116D01*
X129764549Y-66816116D01*
G37*
G36*
X98014549Y-66816116D02*
G01*
X98125734Y-66838232D01*
X98335203Y-66924997D01*
X98523720Y-67050960D01*
X98684040Y-67211280D01*
X98810003Y-67399797D01*
X98896768Y-67609266D01*
X98941000Y-67831636D01*
X98941000Y-68058364D01*
X98896768Y-68280734D01*
X98810003Y-68490203D01*
X98684040Y-68678720D01*
X98523720Y-68839040D01*
X98335203Y-68965003D01*
X98125734Y-69051768D01*
X98016640Y-69073468D01*
X97903365Y-69096000D01*
X97676635Y-69096000D01*
X97563360Y-69073468D01*
X97454266Y-69051768D01*
X97244797Y-68965003D01*
X97056280Y-68839040D01*
X96895960Y-68678720D01*
X96769997Y-68490203D01*
X96683232Y-68280734D01*
X96639000Y-68058364D01*
X96639000Y-67831636D01*
X96683232Y-67609266D01*
X96769997Y-67399797D01*
X96895960Y-67211280D01*
X97056280Y-67050960D01*
X97244797Y-66924997D01*
X97454266Y-66838232D01*
X97565451Y-66816116D01*
X97676635Y-66794000D01*
X97903365Y-66794000D01*
X98014549Y-66816116D01*
X98014549Y-66816116D01*
G37*
M02*
