G04 #@! TF.GenerationSoftware,KiCad,Pcbnew,(5.1.2-1)-1*
G04 #@! TF.CreationDate,2020-01-28T06:09:07-07:00*
G04 #@! TF.ProjectId,tiny_stick,74696e79-5f73-4746-9963-6b2e6b696361,rev?*
G04 #@! TF.SameCoordinates,Original*
G04 #@! TF.FileFunction,Copper,L2,Bot*
G04 #@! TF.FilePolarity,Positive*
%FSLAX46Y46*%
G04 Gerber Fmt 4.6, Leading zero omitted, Abs format (unit mm)*
G04 Created by KiCad (PCBNEW (5.1.2-1)-1) date 2020-01-28 06:09:07*
%MOMM*%
%LPD*%
G04 APERTURE LIST*
%ADD10O,1.600000X1.600000*%
%ADD11R,1.600000X1.600000*%
%ADD12O,1.727200X3.048000*%
%ADD13O,1.700000X1.700000*%
%ADD14R,1.700000X1.700000*%
%ADD15R,3.000000X3.000000*%
%ADD16C,3.000000*%
%ADD17C,0.508000*%
%ADD18C,0.254000*%
G04 APERTURE END LIST*
D10*
X95300800Y-72364600D03*
X87680800Y-79984600D03*
X95300800Y-74904600D03*
X87680800Y-77444600D03*
X95300800Y-77444600D03*
X87680800Y-74904600D03*
X95300800Y-79984600D03*
D11*
X87680800Y-72364600D03*
D12*
X136808200Y-67564000D03*
X141808200Y-67564000D03*
X136808200Y-80064000D03*
X141808200Y-80064000D03*
D13*
X132080000Y-96012000D03*
X129540000Y-96012000D03*
D14*
X127000000Y-96012000D03*
D13*
X106426000Y-78486000D03*
X106426000Y-75946000D03*
D14*
X106426000Y-73406000D03*
D13*
X114554000Y-100838000D03*
X114554000Y-98298000D03*
D14*
X114554000Y-95758000D03*
D13*
X94234000Y-102362000D03*
D14*
X96774000Y-102362000D03*
D13*
X143002000Y-101092000D03*
X143002000Y-98552000D03*
D14*
X143002000Y-96012000D03*
D13*
X87884000Y-100838000D03*
X87884000Y-98298000D03*
D14*
X87884000Y-95758000D03*
D15*
X120142000Y-98298000D03*
D16*
X120042000Y-78998000D03*
D17*
X94500801Y-71564601D02*
X95300800Y-72364600D01*
X94046799Y-71110599D02*
X94500801Y-71564601D01*
X92786200Y-69850000D02*
X94500801Y-71564601D01*
X86995000Y-69850000D02*
X92786200Y-69850000D01*
X85725000Y-94957000D02*
X85725000Y-71120000D01*
X85725000Y-71120000D02*
X86995000Y-69850000D01*
X86526000Y-95758000D02*
X85725000Y-94957000D01*
X87884000Y-95758000D02*
X86526000Y-95758000D01*
D18*
G36*
X136081219Y-65587002D02*
G01*
X135838332Y-65754127D01*
X135632717Y-65965426D01*
X135472275Y-66212778D01*
X135363172Y-66486678D01*
X135309600Y-66776600D01*
X135309600Y-67437000D01*
X136681200Y-67437000D01*
X136681200Y-67417000D01*
X136935200Y-67417000D01*
X136935200Y-67437000D01*
X138306800Y-67437000D01*
X138306800Y-66776600D01*
X138253228Y-66486678D01*
X138144125Y-66212778D01*
X137983683Y-65965426D01*
X137778068Y-65754127D01*
X137535181Y-65587002D01*
X137465454Y-65557000D01*
X141148450Y-65557000D01*
X140971595Y-65651531D01*
X140743404Y-65838803D01*
X140556132Y-66066994D01*
X140416975Y-66327336D01*
X140331284Y-66609823D01*
X140309600Y-66829981D01*
X140309600Y-68298018D01*
X140331284Y-68518176D01*
X140416975Y-68800663D01*
X140556131Y-69061005D01*
X140743403Y-69289197D01*
X140971594Y-69476469D01*
X141231936Y-69615625D01*
X141514423Y-69701316D01*
X141808200Y-69730251D01*
X142101976Y-69701316D01*
X142384463Y-69615625D01*
X142644805Y-69476469D01*
X142872997Y-69289197D01*
X143060269Y-69061006D01*
X143199425Y-68800664D01*
X143285116Y-68518177D01*
X143306800Y-68298019D01*
X143306800Y-66829981D01*
X143285116Y-66609823D01*
X143199425Y-66327336D01*
X143060269Y-66066994D01*
X142872997Y-65838803D01*
X142644806Y-65651531D01*
X142467951Y-65557000D01*
X145390000Y-65557000D01*
X145390001Y-103886000D01*
X86042083Y-103886000D01*
X86038244Y-102718891D01*
X92792519Y-102718891D01*
X92889843Y-102993252D01*
X93038822Y-103243355D01*
X93233731Y-103459588D01*
X93467080Y-103633641D01*
X93729901Y-103758825D01*
X93877110Y-103803476D01*
X94107000Y-103682155D01*
X94107000Y-102489000D01*
X92913186Y-102489000D01*
X92792519Y-102718891D01*
X86038244Y-102718891D01*
X86033231Y-101194890D01*
X86442524Y-101194890D01*
X86487175Y-101342099D01*
X86612359Y-101604920D01*
X86786412Y-101838269D01*
X87002645Y-102033178D01*
X87252748Y-102182157D01*
X87527109Y-102279481D01*
X87757000Y-102158814D01*
X87757000Y-100965000D01*
X88011000Y-100965000D01*
X88011000Y-102158814D01*
X88240891Y-102279481D01*
X88515252Y-102182157D01*
X88765355Y-102033178D01*
X88796494Y-102005109D01*
X92792519Y-102005109D01*
X92913186Y-102235000D01*
X94107000Y-102235000D01*
X94107000Y-101041845D01*
X94361000Y-101041845D01*
X94361000Y-102235000D01*
X94381000Y-102235000D01*
X94381000Y-102489000D01*
X94361000Y-102489000D01*
X94361000Y-103682155D01*
X94590890Y-103803476D01*
X94738099Y-103758825D01*
X95000920Y-103633641D01*
X95234269Y-103459588D01*
X95310034Y-103375534D01*
X95334498Y-103456180D01*
X95393463Y-103566494D01*
X95472815Y-103663185D01*
X95569506Y-103742537D01*
X95679820Y-103801502D01*
X95799518Y-103837812D01*
X95924000Y-103850072D01*
X97624000Y-103850072D01*
X97748482Y-103837812D01*
X97868180Y-103801502D01*
X97978494Y-103742537D01*
X98075185Y-103663185D01*
X98154537Y-103566494D01*
X98213502Y-103456180D01*
X98249812Y-103336482D01*
X98262072Y-103212000D01*
X98262072Y-101512000D01*
X98249812Y-101387518D01*
X98213502Y-101267820D01*
X98154537Y-101157506D01*
X98075185Y-101060815D01*
X97978494Y-100981463D01*
X97868180Y-100922498D01*
X97748482Y-100886188D01*
X97624000Y-100873928D01*
X95924000Y-100873928D01*
X95799518Y-100886188D01*
X95679820Y-100922498D01*
X95569506Y-100981463D01*
X95472815Y-101060815D01*
X95393463Y-101157506D01*
X95334498Y-101267820D01*
X95310034Y-101348466D01*
X95234269Y-101264412D01*
X95000920Y-101090359D01*
X94738099Y-100965175D01*
X94590890Y-100920524D01*
X94361000Y-101041845D01*
X94107000Y-101041845D01*
X93877110Y-100920524D01*
X93729901Y-100965175D01*
X93467080Y-101090359D01*
X93233731Y-101264412D01*
X93038822Y-101480645D01*
X92889843Y-101730748D01*
X92792519Y-102005109D01*
X88796494Y-102005109D01*
X88981588Y-101838269D01*
X89155641Y-101604920D01*
X89280825Y-101342099D01*
X89325476Y-101194890D01*
X89204155Y-100965000D01*
X88011000Y-100965000D01*
X87757000Y-100965000D01*
X86563845Y-100965000D01*
X86442524Y-101194890D01*
X86033231Y-101194890D01*
X86017757Y-96490944D01*
X86029709Y-96500753D01*
X86184149Y-96583303D01*
X86265566Y-96608000D01*
X86351725Y-96634136D01*
X86370073Y-96635943D01*
X86398960Y-96638788D01*
X86408188Y-96732482D01*
X86444498Y-96852180D01*
X86503463Y-96962494D01*
X86582815Y-97059185D01*
X86679506Y-97138537D01*
X86789820Y-97197502D01*
X86858687Y-97218393D01*
X86828866Y-97242866D01*
X86643294Y-97468986D01*
X86505401Y-97726966D01*
X86420487Y-98006889D01*
X86391815Y-98298000D01*
X86420487Y-98589111D01*
X86505401Y-98869034D01*
X86643294Y-99127014D01*
X86828866Y-99353134D01*
X87054986Y-99538706D01*
X87119523Y-99573201D01*
X87002645Y-99642822D01*
X86786412Y-99837731D01*
X86612359Y-100071080D01*
X86487175Y-100333901D01*
X86442524Y-100481110D01*
X86563845Y-100711000D01*
X87757000Y-100711000D01*
X87757000Y-100691000D01*
X88011000Y-100691000D01*
X88011000Y-100711000D01*
X89204155Y-100711000D01*
X89325476Y-100481110D01*
X89280825Y-100333901D01*
X89155641Y-100071080D01*
X88981588Y-99837731D01*
X88765355Y-99642822D01*
X88648477Y-99573201D01*
X88713014Y-99538706D01*
X88939134Y-99353134D01*
X89124706Y-99127014D01*
X89262599Y-98869034D01*
X89347513Y-98589111D01*
X89376185Y-98298000D01*
X113061815Y-98298000D01*
X113090487Y-98589111D01*
X113175401Y-98869034D01*
X113313294Y-99127014D01*
X113498866Y-99353134D01*
X113724986Y-99538706D01*
X113779791Y-99568000D01*
X113724986Y-99597294D01*
X113498866Y-99782866D01*
X113313294Y-100008986D01*
X113175401Y-100266966D01*
X113090487Y-100546889D01*
X113061815Y-100838000D01*
X113090487Y-101129111D01*
X113175401Y-101409034D01*
X113313294Y-101667014D01*
X113498866Y-101893134D01*
X113724986Y-102078706D01*
X113982966Y-102216599D01*
X114262889Y-102301513D01*
X114481050Y-102323000D01*
X114626950Y-102323000D01*
X114845111Y-102301513D01*
X115125034Y-102216599D01*
X115383014Y-102078706D01*
X115609134Y-101893134D01*
X115794706Y-101667014D01*
X115911295Y-101448890D01*
X141560524Y-101448890D01*
X141605175Y-101596099D01*
X141730359Y-101858920D01*
X141904412Y-102092269D01*
X142120645Y-102287178D01*
X142370748Y-102436157D01*
X142645109Y-102533481D01*
X142875000Y-102412814D01*
X142875000Y-101219000D01*
X143129000Y-101219000D01*
X143129000Y-102412814D01*
X143358891Y-102533481D01*
X143633252Y-102436157D01*
X143883355Y-102287178D01*
X144099588Y-102092269D01*
X144273641Y-101858920D01*
X144398825Y-101596099D01*
X144443476Y-101448890D01*
X144322155Y-101219000D01*
X143129000Y-101219000D01*
X142875000Y-101219000D01*
X141681845Y-101219000D01*
X141560524Y-101448890D01*
X115911295Y-101448890D01*
X115932599Y-101409034D01*
X116017513Y-101129111D01*
X116046185Y-100838000D01*
X116017513Y-100546889D01*
X115932599Y-100266966D01*
X115794706Y-100008986D01*
X115609134Y-99782866D01*
X115383014Y-99597294D01*
X115328209Y-99568000D01*
X115383014Y-99538706D01*
X115609134Y-99353134D01*
X115794706Y-99127014D01*
X115932599Y-98869034D01*
X116017513Y-98589111D01*
X116046185Y-98298000D01*
X116017513Y-98006889D01*
X115932599Y-97726966D01*
X115794706Y-97468986D01*
X115609134Y-97242866D01*
X115579313Y-97218393D01*
X115648180Y-97197502D01*
X115758494Y-97138537D01*
X115855185Y-97059185D01*
X115934537Y-96962494D01*
X115993502Y-96852180D01*
X116009937Y-96798000D01*
X118003928Y-96798000D01*
X118003928Y-99798000D01*
X118016188Y-99922482D01*
X118052498Y-100042180D01*
X118111463Y-100152494D01*
X118190815Y-100249185D01*
X118287506Y-100328537D01*
X118397820Y-100387502D01*
X118517518Y-100423812D01*
X118642000Y-100436072D01*
X121642000Y-100436072D01*
X121766482Y-100423812D01*
X121886180Y-100387502D01*
X121996494Y-100328537D01*
X122093185Y-100249185D01*
X122172537Y-100152494D01*
X122231502Y-100042180D01*
X122267812Y-99922482D01*
X122280072Y-99798000D01*
X122280072Y-98552000D01*
X141509815Y-98552000D01*
X141538487Y-98843111D01*
X141623401Y-99123034D01*
X141761294Y-99381014D01*
X141946866Y-99607134D01*
X142172986Y-99792706D01*
X142237523Y-99827201D01*
X142120645Y-99896822D01*
X141904412Y-100091731D01*
X141730359Y-100325080D01*
X141605175Y-100587901D01*
X141560524Y-100735110D01*
X141681845Y-100965000D01*
X142875000Y-100965000D01*
X142875000Y-100945000D01*
X143129000Y-100945000D01*
X143129000Y-100965000D01*
X144322155Y-100965000D01*
X144443476Y-100735110D01*
X144398825Y-100587901D01*
X144273641Y-100325080D01*
X144099588Y-100091731D01*
X143883355Y-99896822D01*
X143766477Y-99827201D01*
X143831014Y-99792706D01*
X144057134Y-99607134D01*
X144242706Y-99381014D01*
X144380599Y-99123034D01*
X144465513Y-98843111D01*
X144494185Y-98552000D01*
X144465513Y-98260889D01*
X144380599Y-97980966D01*
X144242706Y-97722986D01*
X144057134Y-97496866D01*
X144027313Y-97472393D01*
X144096180Y-97451502D01*
X144206494Y-97392537D01*
X144303185Y-97313185D01*
X144382537Y-97216494D01*
X144441502Y-97106180D01*
X144477812Y-96986482D01*
X144490072Y-96862000D01*
X144490072Y-95162000D01*
X144477812Y-95037518D01*
X144441502Y-94917820D01*
X144382537Y-94807506D01*
X144303185Y-94710815D01*
X144206494Y-94631463D01*
X144096180Y-94572498D01*
X143976482Y-94536188D01*
X143852000Y-94523928D01*
X142152000Y-94523928D01*
X142027518Y-94536188D01*
X141907820Y-94572498D01*
X141797506Y-94631463D01*
X141700815Y-94710815D01*
X141621463Y-94807506D01*
X141562498Y-94917820D01*
X141526188Y-95037518D01*
X141513928Y-95162000D01*
X141513928Y-96862000D01*
X141526188Y-96986482D01*
X141562498Y-97106180D01*
X141621463Y-97216494D01*
X141700815Y-97313185D01*
X141797506Y-97392537D01*
X141907820Y-97451502D01*
X141976687Y-97472393D01*
X141946866Y-97496866D01*
X141761294Y-97722986D01*
X141623401Y-97980966D01*
X141538487Y-98260889D01*
X141509815Y-98552000D01*
X122280072Y-98552000D01*
X122280072Y-96798000D01*
X122267812Y-96673518D01*
X122231502Y-96553820D01*
X122172537Y-96443506D01*
X122093185Y-96346815D01*
X121996494Y-96267463D01*
X121886180Y-96208498D01*
X121766482Y-96172188D01*
X121642000Y-96159928D01*
X118642000Y-96159928D01*
X118517518Y-96172188D01*
X118397820Y-96208498D01*
X118287506Y-96267463D01*
X118190815Y-96346815D01*
X118111463Y-96443506D01*
X118052498Y-96553820D01*
X118016188Y-96673518D01*
X118003928Y-96798000D01*
X116009937Y-96798000D01*
X116029812Y-96732482D01*
X116042072Y-96608000D01*
X116042072Y-95162000D01*
X125511928Y-95162000D01*
X125511928Y-96862000D01*
X125524188Y-96986482D01*
X125560498Y-97106180D01*
X125619463Y-97216494D01*
X125698815Y-97313185D01*
X125795506Y-97392537D01*
X125905820Y-97451502D01*
X126025518Y-97487812D01*
X126150000Y-97500072D01*
X127850000Y-97500072D01*
X127974482Y-97487812D01*
X128094180Y-97451502D01*
X128204494Y-97392537D01*
X128301185Y-97313185D01*
X128380537Y-97216494D01*
X128439502Y-97106180D01*
X128460393Y-97037313D01*
X128484866Y-97067134D01*
X128710986Y-97252706D01*
X128968966Y-97390599D01*
X129248889Y-97475513D01*
X129467050Y-97497000D01*
X129612950Y-97497000D01*
X129831111Y-97475513D01*
X130111034Y-97390599D01*
X130369014Y-97252706D01*
X130595134Y-97067134D01*
X130780706Y-96841014D01*
X130810000Y-96786209D01*
X130839294Y-96841014D01*
X131024866Y-97067134D01*
X131250986Y-97252706D01*
X131508966Y-97390599D01*
X131788889Y-97475513D01*
X132007050Y-97497000D01*
X132152950Y-97497000D01*
X132371111Y-97475513D01*
X132651034Y-97390599D01*
X132909014Y-97252706D01*
X133135134Y-97067134D01*
X133320706Y-96841014D01*
X133458599Y-96583034D01*
X133543513Y-96303111D01*
X133572185Y-96012000D01*
X133543513Y-95720889D01*
X133458599Y-95440966D01*
X133320706Y-95182986D01*
X133135134Y-94956866D01*
X132909014Y-94771294D01*
X132651034Y-94633401D01*
X132371111Y-94548487D01*
X132152950Y-94527000D01*
X132007050Y-94527000D01*
X131788889Y-94548487D01*
X131508966Y-94633401D01*
X131250986Y-94771294D01*
X131024866Y-94956866D01*
X130839294Y-95182986D01*
X130810000Y-95237791D01*
X130780706Y-95182986D01*
X130595134Y-94956866D01*
X130369014Y-94771294D01*
X130111034Y-94633401D01*
X129831111Y-94548487D01*
X129612950Y-94527000D01*
X129467050Y-94527000D01*
X129248889Y-94548487D01*
X128968966Y-94633401D01*
X128710986Y-94771294D01*
X128484866Y-94956866D01*
X128460393Y-94986687D01*
X128439502Y-94917820D01*
X128380537Y-94807506D01*
X128301185Y-94710815D01*
X128204494Y-94631463D01*
X128094180Y-94572498D01*
X127974482Y-94536188D01*
X127850000Y-94523928D01*
X126150000Y-94523928D01*
X126025518Y-94536188D01*
X125905820Y-94572498D01*
X125795506Y-94631463D01*
X125698815Y-94710815D01*
X125619463Y-94807506D01*
X125560498Y-94917820D01*
X125524188Y-95037518D01*
X125511928Y-95162000D01*
X116042072Y-95162000D01*
X116042072Y-94908000D01*
X116029812Y-94783518D01*
X115993502Y-94663820D01*
X115934537Y-94553506D01*
X115855185Y-94456815D01*
X115758494Y-94377463D01*
X115648180Y-94318498D01*
X115528482Y-94282188D01*
X115404000Y-94269928D01*
X113704000Y-94269928D01*
X113579518Y-94282188D01*
X113459820Y-94318498D01*
X113349506Y-94377463D01*
X113252815Y-94456815D01*
X113173463Y-94553506D01*
X113114498Y-94663820D01*
X113078188Y-94783518D01*
X113065928Y-94908000D01*
X113065928Y-96608000D01*
X113078188Y-96732482D01*
X113114498Y-96852180D01*
X113173463Y-96962494D01*
X113252815Y-97059185D01*
X113349506Y-97138537D01*
X113459820Y-97197502D01*
X113528687Y-97218393D01*
X113498866Y-97242866D01*
X113313294Y-97468986D01*
X113175401Y-97726966D01*
X113090487Y-98006889D01*
X113061815Y-98298000D01*
X89376185Y-98298000D01*
X89347513Y-98006889D01*
X89262599Y-97726966D01*
X89124706Y-97468986D01*
X88939134Y-97242866D01*
X88909313Y-97218393D01*
X88978180Y-97197502D01*
X89088494Y-97138537D01*
X89185185Y-97059185D01*
X89264537Y-96962494D01*
X89323502Y-96852180D01*
X89359812Y-96732482D01*
X89372072Y-96608000D01*
X89372072Y-94908000D01*
X89359812Y-94783518D01*
X89323502Y-94663820D01*
X89264537Y-94553506D01*
X89185185Y-94456815D01*
X89088494Y-94377463D01*
X88978180Y-94318498D01*
X88858482Y-94282188D01*
X88734000Y-94269928D01*
X87034000Y-94269928D01*
X86909518Y-94282188D01*
X86789820Y-94318498D01*
X86679506Y-94377463D01*
X86614000Y-94431222D01*
X86614000Y-80943588D01*
X86617281Y-80948014D01*
X86825669Y-81136985D01*
X87066919Y-81281670D01*
X87331760Y-81376509D01*
X87553800Y-81255224D01*
X87553800Y-80111600D01*
X87807800Y-80111600D01*
X87807800Y-81255224D01*
X88029840Y-81376509D01*
X88294681Y-81281670D01*
X88535931Y-81136985D01*
X88744319Y-80948014D01*
X88911837Y-80722020D01*
X89032046Y-80467687D01*
X89072704Y-80333639D01*
X88950715Y-80111600D01*
X87807800Y-80111600D01*
X87553800Y-80111600D01*
X87533800Y-80111600D01*
X87533800Y-79857600D01*
X87553800Y-79857600D01*
X87553800Y-79837600D01*
X87807800Y-79837600D01*
X87807800Y-79857600D01*
X88950715Y-79857600D01*
X89072704Y-79635561D01*
X89032046Y-79501513D01*
X88911837Y-79247180D01*
X88744319Y-79021186D01*
X88535931Y-78832215D01*
X88344118Y-78717179D01*
X88481901Y-78643532D01*
X88700408Y-78464208D01*
X88879732Y-78245701D01*
X89012982Y-77996408D01*
X89095036Y-77725909D01*
X89122743Y-77444600D01*
X89095036Y-77163291D01*
X89012982Y-76892792D01*
X88879732Y-76643499D01*
X88700408Y-76424992D01*
X88481901Y-76245668D01*
X88348942Y-76174600D01*
X88481901Y-76103532D01*
X88700408Y-75924208D01*
X88879732Y-75705701D01*
X89012982Y-75456408D01*
X89095036Y-75185909D01*
X89122743Y-74904600D01*
X89095036Y-74623291D01*
X89012982Y-74352792D01*
X88879732Y-74103499D01*
X88700408Y-73884992D01*
X88587318Y-73792181D01*
X88605282Y-73790412D01*
X88724980Y-73754102D01*
X88835294Y-73695137D01*
X88931985Y-73615785D01*
X89011337Y-73519094D01*
X89070302Y-73408780D01*
X89106612Y-73289082D01*
X89118872Y-73164600D01*
X89118872Y-71564600D01*
X89106612Y-71440118D01*
X89070302Y-71320420D01*
X89011337Y-71210106D01*
X88931985Y-71113415D01*
X88835294Y-71034063D01*
X88724980Y-70975098D01*
X88605282Y-70938788D01*
X88480800Y-70926528D01*
X87175708Y-70926528D01*
X87363236Y-70739000D01*
X92417965Y-70739000D01*
X93875418Y-72196454D01*
X93858857Y-72364600D01*
X93886564Y-72645909D01*
X93968618Y-72916408D01*
X94101868Y-73165701D01*
X94281192Y-73384208D01*
X94499699Y-73563532D01*
X94632658Y-73634600D01*
X94499699Y-73705668D01*
X94281192Y-73884992D01*
X94101868Y-74103499D01*
X93968618Y-74352792D01*
X93886564Y-74623291D01*
X93858857Y-74904600D01*
X93886564Y-75185909D01*
X93968618Y-75456408D01*
X94101868Y-75705701D01*
X94281192Y-75924208D01*
X94499699Y-76103532D01*
X94632658Y-76174600D01*
X94499699Y-76245668D01*
X94281192Y-76424992D01*
X94101868Y-76643499D01*
X93968618Y-76892792D01*
X93886564Y-77163291D01*
X93858857Y-77444600D01*
X93886564Y-77725909D01*
X93968618Y-77996408D01*
X94101868Y-78245701D01*
X94281192Y-78464208D01*
X94499699Y-78643532D01*
X94632658Y-78714600D01*
X94499699Y-78785668D01*
X94281192Y-78964992D01*
X94101868Y-79183499D01*
X93968618Y-79432792D01*
X93886564Y-79703291D01*
X93858857Y-79984600D01*
X93886564Y-80265909D01*
X93968618Y-80536408D01*
X94101868Y-80785701D01*
X94281192Y-81004208D01*
X94499699Y-81183532D01*
X94748992Y-81316782D01*
X95019491Y-81398836D01*
X95230308Y-81419600D01*
X95371292Y-81419600D01*
X95582109Y-81398836D01*
X95852608Y-81316782D01*
X96101901Y-81183532D01*
X96320408Y-81004208D01*
X96499732Y-80785701D01*
X96632982Y-80536408D01*
X96647164Y-80489653D01*
X118729952Y-80489653D01*
X118885962Y-80805214D01*
X119260745Y-80996020D01*
X119665551Y-81110044D01*
X120084824Y-81142902D01*
X120502451Y-81093334D01*
X120902383Y-80963243D01*
X121198038Y-80805214D01*
X121354048Y-80489653D01*
X120042000Y-79177605D01*
X118729952Y-80489653D01*
X96647164Y-80489653D01*
X96715036Y-80265909D01*
X96742743Y-79984600D01*
X96715036Y-79703291D01*
X96632982Y-79432792D01*
X96499732Y-79183499D01*
X96320408Y-78964992D01*
X96171627Y-78842890D01*
X104984524Y-78842890D01*
X105029175Y-78990099D01*
X105154359Y-79252920D01*
X105328412Y-79486269D01*
X105544645Y-79681178D01*
X105794748Y-79830157D01*
X106069109Y-79927481D01*
X106299000Y-79806814D01*
X106299000Y-78613000D01*
X106553000Y-78613000D01*
X106553000Y-79806814D01*
X106782891Y-79927481D01*
X107057252Y-79830157D01*
X107307355Y-79681178D01*
X107523588Y-79486269D01*
X107697641Y-79252920D01*
X107798664Y-79040824D01*
X117897098Y-79040824D01*
X117946666Y-79458451D01*
X118076757Y-79858383D01*
X118234786Y-80154038D01*
X118550347Y-80310048D01*
X119862395Y-78998000D01*
X120221605Y-78998000D01*
X121533653Y-80310048D01*
X121774451Y-80191000D01*
X135309600Y-80191000D01*
X135309600Y-80851400D01*
X135363172Y-81141322D01*
X135472275Y-81415222D01*
X135632717Y-81662574D01*
X135838332Y-81873873D01*
X136081219Y-82040998D01*
X136352043Y-82157527D01*
X136449174Y-82179358D01*
X136681200Y-82058217D01*
X136681200Y-80191000D01*
X136935200Y-80191000D01*
X136935200Y-82058217D01*
X137167226Y-82179358D01*
X137264357Y-82157527D01*
X137535181Y-82040998D01*
X137778068Y-81873873D01*
X137983683Y-81662574D01*
X138144125Y-81415222D01*
X138253228Y-81141322D01*
X138306800Y-80851400D01*
X138306800Y-80191000D01*
X136935200Y-80191000D01*
X136681200Y-80191000D01*
X135309600Y-80191000D01*
X121774451Y-80191000D01*
X121849214Y-80154038D01*
X122040020Y-79779255D01*
X122154044Y-79374449D01*
X122161712Y-79276600D01*
X135309600Y-79276600D01*
X135309600Y-79937000D01*
X136681200Y-79937000D01*
X136681200Y-78069783D01*
X136935200Y-78069783D01*
X136935200Y-79937000D01*
X138306800Y-79937000D01*
X138306800Y-79329981D01*
X140309600Y-79329981D01*
X140309600Y-80798018D01*
X140331284Y-81018176D01*
X140416975Y-81300663D01*
X140556131Y-81561005D01*
X140743403Y-81789197D01*
X140971594Y-81976469D01*
X141231936Y-82115625D01*
X141514423Y-82201316D01*
X141808200Y-82230251D01*
X142101976Y-82201316D01*
X142384463Y-82115625D01*
X142644805Y-81976469D01*
X142872997Y-81789197D01*
X143060269Y-81561006D01*
X143199425Y-81300664D01*
X143285116Y-81018177D01*
X143306800Y-80798019D01*
X143306800Y-79329981D01*
X143285116Y-79109823D01*
X143199425Y-78827336D01*
X143060269Y-78566994D01*
X142872997Y-78338803D01*
X142644806Y-78151531D01*
X142384464Y-78012375D01*
X142101977Y-77926684D01*
X141808200Y-77897749D01*
X141514424Y-77926684D01*
X141231937Y-78012375D01*
X140971595Y-78151531D01*
X140743404Y-78338803D01*
X140556132Y-78566994D01*
X140416975Y-78827336D01*
X140331284Y-79109823D01*
X140309600Y-79329981D01*
X138306800Y-79329981D01*
X138306800Y-79276600D01*
X138253228Y-78986678D01*
X138144125Y-78712778D01*
X137983683Y-78465426D01*
X137778068Y-78254127D01*
X137535181Y-78087002D01*
X137264357Y-77970473D01*
X137167226Y-77948642D01*
X136935200Y-78069783D01*
X136681200Y-78069783D01*
X136449174Y-77948642D01*
X136352043Y-77970473D01*
X136081219Y-78087002D01*
X135838332Y-78254127D01*
X135632717Y-78465426D01*
X135472275Y-78712778D01*
X135363172Y-78986678D01*
X135309600Y-79276600D01*
X122161712Y-79276600D01*
X122186902Y-78955176D01*
X122137334Y-78537549D01*
X122007243Y-78137617D01*
X121849214Y-77841962D01*
X121533653Y-77685952D01*
X120221605Y-78998000D01*
X119862395Y-78998000D01*
X118550347Y-77685952D01*
X118234786Y-77841962D01*
X118043980Y-78216745D01*
X117929956Y-78621551D01*
X117897098Y-79040824D01*
X107798664Y-79040824D01*
X107822825Y-78990099D01*
X107867476Y-78842890D01*
X107746155Y-78613000D01*
X106553000Y-78613000D01*
X106299000Y-78613000D01*
X105105845Y-78613000D01*
X104984524Y-78842890D01*
X96171627Y-78842890D01*
X96101901Y-78785668D01*
X95968942Y-78714600D01*
X96101901Y-78643532D01*
X96320408Y-78464208D01*
X96499732Y-78245701D01*
X96632982Y-77996408D01*
X96715036Y-77725909D01*
X96742743Y-77444600D01*
X96715036Y-77163291D01*
X96632982Y-76892792D01*
X96499732Y-76643499D01*
X96320408Y-76424992D01*
X96101901Y-76245668D01*
X95968942Y-76174600D01*
X96101901Y-76103532D01*
X96293854Y-75946000D01*
X104933815Y-75946000D01*
X104962487Y-76237111D01*
X105047401Y-76517034D01*
X105185294Y-76775014D01*
X105370866Y-77001134D01*
X105596986Y-77186706D01*
X105661523Y-77221201D01*
X105544645Y-77290822D01*
X105328412Y-77485731D01*
X105154359Y-77719080D01*
X105029175Y-77981901D01*
X104984524Y-78129110D01*
X105105845Y-78359000D01*
X106299000Y-78359000D01*
X106299000Y-78339000D01*
X106553000Y-78339000D01*
X106553000Y-78359000D01*
X107746155Y-78359000D01*
X107867476Y-78129110D01*
X107822825Y-77981901D01*
X107697641Y-77719080D01*
X107538966Y-77506347D01*
X118729952Y-77506347D01*
X120042000Y-78818395D01*
X121354048Y-77506347D01*
X121198038Y-77190786D01*
X120823255Y-76999980D01*
X120418449Y-76885956D01*
X119999176Y-76853098D01*
X119581549Y-76902666D01*
X119181617Y-77032757D01*
X118885962Y-77190786D01*
X118729952Y-77506347D01*
X107538966Y-77506347D01*
X107523588Y-77485731D01*
X107307355Y-77290822D01*
X107190477Y-77221201D01*
X107255014Y-77186706D01*
X107481134Y-77001134D01*
X107666706Y-76775014D01*
X107804599Y-76517034D01*
X107889513Y-76237111D01*
X107918185Y-75946000D01*
X107889513Y-75654889D01*
X107804599Y-75374966D01*
X107666706Y-75116986D01*
X107481134Y-74890866D01*
X107451313Y-74866393D01*
X107520180Y-74845502D01*
X107630494Y-74786537D01*
X107727185Y-74707185D01*
X107806537Y-74610494D01*
X107865502Y-74500180D01*
X107901812Y-74380482D01*
X107914072Y-74256000D01*
X107914072Y-72556000D01*
X107901812Y-72431518D01*
X107865502Y-72311820D01*
X107806537Y-72201506D01*
X107727185Y-72104815D01*
X107630494Y-72025463D01*
X107520180Y-71966498D01*
X107400482Y-71930188D01*
X107276000Y-71917928D01*
X105576000Y-71917928D01*
X105451518Y-71930188D01*
X105331820Y-71966498D01*
X105221506Y-72025463D01*
X105124815Y-72104815D01*
X105045463Y-72201506D01*
X104986498Y-72311820D01*
X104950188Y-72431518D01*
X104937928Y-72556000D01*
X104937928Y-74256000D01*
X104950188Y-74380482D01*
X104986498Y-74500180D01*
X105045463Y-74610494D01*
X105124815Y-74707185D01*
X105221506Y-74786537D01*
X105331820Y-74845502D01*
X105400687Y-74866393D01*
X105370866Y-74890866D01*
X105185294Y-75116986D01*
X105047401Y-75374966D01*
X104962487Y-75654889D01*
X104933815Y-75946000D01*
X96293854Y-75946000D01*
X96320408Y-75924208D01*
X96499732Y-75705701D01*
X96632982Y-75456408D01*
X96715036Y-75185909D01*
X96742743Y-74904600D01*
X96715036Y-74623291D01*
X96632982Y-74352792D01*
X96499732Y-74103499D01*
X96320408Y-73884992D01*
X96101901Y-73705668D01*
X95968942Y-73634600D01*
X96101901Y-73563532D01*
X96320408Y-73384208D01*
X96499732Y-73165701D01*
X96632982Y-72916408D01*
X96715036Y-72645909D01*
X96742743Y-72364600D01*
X96715036Y-72083291D01*
X96632982Y-71812792D01*
X96499732Y-71563499D01*
X96320408Y-71344992D01*
X96101901Y-71165668D01*
X95852608Y-71032418D01*
X95582109Y-70950364D01*
X95371292Y-70929600D01*
X95230308Y-70929600D01*
X95132654Y-70939218D01*
X93445699Y-69252264D01*
X93417859Y-69218341D01*
X93282491Y-69107247D01*
X93128051Y-69024697D01*
X92960474Y-68973864D01*
X92829867Y-68961000D01*
X92829860Y-68961000D01*
X92786200Y-68956700D01*
X92742540Y-68961000D01*
X87038659Y-68961000D01*
X86994999Y-68956700D01*
X86951339Y-68961000D01*
X86951333Y-68961000D01*
X86853924Y-68970594D01*
X86820724Y-68973864D01*
X86719058Y-69004704D01*
X86653149Y-69024697D01*
X86498709Y-69107247D01*
X86363341Y-69218341D01*
X86335506Y-69252259D01*
X85929491Y-69658274D01*
X85923294Y-67774117D01*
X96055000Y-67774117D01*
X96055000Y-68115883D01*
X96121675Y-68451081D01*
X96252463Y-68766831D01*
X96442337Y-69050998D01*
X96684002Y-69292663D01*
X96968169Y-69482537D01*
X97283919Y-69613325D01*
X97619117Y-69680000D01*
X97960883Y-69680000D01*
X98296081Y-69613325D01*
X98611831Y-69482537D01*
X98895998Y-69292663D01*
X99137663Y-69050998D01*
X99327537Y-68766831D01*
X99458325Y-68451081D01*
X99525000Y-68115883D01*
X99525000Y-67774117D01*
X127805000Y-67774117D01*
X127805000Y-68115883D01*
X127871675Y-68451081D01*
X128002463Y-68766831D01*
X128192337Y-69050998D01*
X128434002Y-69292663D01*
X128718169Y-69482537D01*
X129033919Y-69613325D01*
X129369117Y-69680000D01*
X129710883Y-69680000D01*
X130046081Y-69613325D01*
X130361831Y-69482537D01*
X130645998Y-69292663D01*
X130887663Y-69050998D01*
X131077537Y-68766831D01*
X131208325Y-68451081D01*
X131275000Y-68115883D01*
X131275000Y-67774117D01*
X131258468Y-67691000D01*
X135309600Y-67691000D01*
X135309600Y-68351400D01*
X135363172Y-68641322D01*
X135472275Y-68915222D01*
X135632717Y-69162574D01*
X135838332Y-69373873D01*
X136081219Y-69540998D01*
X136352043Y-69657527D01*
X136449174Y-69679358D01*
X136681200Y-69558217D01*
X136681200Y-67691000D01*
X136935200Y-67691000D01*
X136935200Y-69558217D01*
X137167226Y-69679358D01*
X137264357Y-69657527D01*
X137535181Y-69540998D01*
X137778068Y-69373873D01*
X137983683Y-69162574D01*
X138144125Y-68915222D01*
X138253228Y-68641322D01*
X138306800Y-68351400D01*
X138306800Y-67691000D01*
X136935200Y-67691000D01*
X136681200Y-67691000D01*
X135309600Y-67691000D01*
X131258468Y-67691000D01*
X131208325Y-67438919D01*
X131077537Y-67123169D01*
X130887663Y-66839002D01*
X130645998Y-66597337D01*
X130361831Y-66407463D01*
X130046081Y-66276675D01*
X129710883Y-66210000D01*
X129369117Y-66210000D01*
X129033919Y-66276675D01*
X128718169Y-66407463D01*
X128434002Y-66597337D01*
X128192337Y-66839002D01*
X128002463Y-67123169D01*
X127871675Y-67438919D01*
X127805000Y-67774117D01*
X99525000Y-67774117D01*
X99458325Y-67438919D01*
X99327537Y-67123169D01*
X99137663Y-66839002D01*
X98895998Y-66597337D01*
X98611831Y-66407463D01*
X98296081Y-66276675D01*
X97960883Y-66210000D01*
X97619117Y-66210000D01*
X97283919Y-66276675D01*
X96968169Y-66407463D01*
X96684002Y-66597337D01*
X96442337Y-66839002D01*
X96252463Y-67123169D01*
X96121675Y-67438919D01*
X96055000Y-67774117D01*
X85923294Y-67774117D01*
X85916000Y-65557000D01*
X136150946Y-65557000D01*
X136081219Y-65587002D01*
X136081219Y-65587002D01*
G37*
X136081219Y-65587002D02*
X135838332Y-65754127D01*
X135632717Y-65965426D01*
X135472275Y-66212778D01*
X135363172Y-66486678D01*
X135309600Y-66776600D01*
X135309600Y-67437000D01*
X136681200Y-67437000D01*
X136681200Y-67417000D01*
X136935200Y-67417000D01*
X136935200Y-67437000D01*
X138306800Y-67437000D01*
X138306800Y-66776600D01*
X138253228Y-66486678D01*
X138144125Y-66212778D01*
X137983683Y-65965426D01*
X137778068Y-65754127D01*
X137535181Y-65587002D01*
X137465454Y-65557000D01*
X141148450Y-65557000D01*
X140971595Y-65651531D01*
X140743404Y-65838803D01*
X140556132Y-66066994D01*
X140416975Y-66327336D01*
X140331284Y-66609823D01*
X140309600Y-66829981D01*
X140309600Y-68298018D01*
X140331284Y-68518176D01*
X140416975Y-68800663D01*
X140556131Y-69061005D01*
X140743403Y-69289197D01*
X140971594Y-69476469D01*
X141231936Y-69615625D01*
X141514423Y-69701316D01*
X141808200Y-69730251D01*
X142101976Y-69701316D01*
X142384463Y-69615625D01*
X142644805Y-69476469D01*
X142872997Y-69289197D01*
X143060269Y-69061006D01*
X143199425Y-68800664D01*
X143285116Y-68518177D01*
X143306800Y-68298019D01*
X143306800Y-66829981D01*
X143285116Y-66609823D01*
X143199425Y-66327336D01*
X143060269Y-66066994D01*
X142872997Y-65838803D01*
X142644806Y-65651531D01*
X142467951Y-65557000D01*
X145390000Y-65557000D01*
X145390001Y-103886000D01*
X86042083Y-103886000D01*
X86038244Y-102718891D01*
X92792519Y-102718891D01*
X92889843Y-102993252D01*
X93038822Y-103243355D01*
X93233731Y-103459588D01*
X93467080Y-103633641D01*
X93729901Y-103758825D01*
X93877110Y-103803476D01*
X94107000Y-103682155D01*
X94107000Y-102489000D01*
X92913186Y-102489000D01*
X92792519Y-102718891D01*
X86038244Y-102718891D01*
X86033231Y-101194890D01*
X86442524Y-101194890D01*
X86487175Y-101342099D01*
X86612359Y-101604920D01*
X86786412Y-101838269D01*
X87002645Y-102033178D01*
X87252748Y-102182157D01*
X87527109Y-102279481D01*
X87757000Y-102158814D01*
X87757000Y-100965000D01*
X88011000Y-100965000D01*
X88011000Y-102158814D01*
X88240891Y-102279481D01*
X88515252Y-102182157D01*
X88765355Y-102033178D01*
X88796494Y-102005109D01*
X92792519Y-102005109D01*
X92913186Y-102235000D01*
X94107000Y-102235000D01*
X94107000Y-101041845D01*
X94361000Y-101041845D01*
X94361000Y-102235000D01*
X94381000Y-102235000D01*
X94381000Y-102489000D01*
X94361000Y-102489000D01*
X94361000Y-103682155D01*
X94590890Y-103803476D01*
X94738099Y-103758825D01*
X95000920Y-103633641D01*
X95234269Y-103459588D01*
X95310034Y-103375534D01*
X95334498Y-103456180D01*
X95393463Y-103566494D01*
X95472815Y-103663185D01*
X95569506Y-103742537D01*
X95679820Y-103801502D01*
X95799518Y-103837812D01*
X95924000Y-103850072D01*
X97624000Y-103850072D01*
X97748482Y-103837812D01*
X97868180Y-103801502D01*
X97978494Y-103742537D01*
X98075185Y-103663185D01*
X98154537Y-103566494D01*
X98213502Y-103456180D01*
X98249812Y-103336482D01*
X98262072Y-103212000D01*
X98262072Y-101512000D01*
X98249812Y-101387518D01*
X98213502Y-101267820D01*
X98154537Y-101157506D01*
X98075185Y-101060815D01*
X97978494Y-100981463D01*
X97868180Y-100922498D01*
X97748482Y-100886188D01*
X97624000Y-100873928D01*
X95924000Y-100873928D01*
X95799518Y-100886188D01*
X95679820Y-100922498D01*
X95569506Y-100981463D01*
X95472815Y-101060815D01*
X95393463Y-101157506D01*
X95334498Y-101267820D01*
X95310034Y-101348466D01*
X95234269Y-101264412D01*
X95000920Y-101090359D01*
X94738099Y-100965175D01*
X94590890Y-100920524D01*
X94361000Y-101041845D01*
X94107000Y-101041845D01*
X93877110Y-100920524D01*
X93729901Y-100965175D01*
X93467080Y-101090359D01*
X93233731Y-101264412D01*
X93038822Y-101480645D01*
X92889843Y-101730748D01*
X92792519Y-102005109D01*
X88796494Y-102005109D01*
X88981588Y-101838269D01*
X89155641Y-101604920D01*
X89280825Y-101342099D01*
X89325476Y-101194890D01*
X89204155Y-100965000D01*
X88011000Y-100965000D01*
X87757000Y-100965000D01*
X86563845Y-100965000D01*
X86442524Y-101194890D01*
X86033231Y-101194890D01*
X86017757Y-96490944D01*
X86029709Y-96500753D01*
X86184149Y-96583303D01*
X86265566Y-96608000D01*
X86351725Y-96634136D01*
X86370073Y-96635943D01*
X86398960Y-96638788D01*
X86408188Y-96732482D01*
X86444498Y-96852180D01*
X86503463Y-96962494D01*
X86582815Y-97059185D01*
X86679506Y-97138537D01*
X86789820Y-97197502D01*
X86858687Y-97218393D01*
X86828866Y-97242866D01*
X86643294Y-97468986D01*
X86505401Y-97726966D01*
X86420487Y-98006889D01*
X86391815Y-98298000D01*
X86420487Y-98589111D01*
X86505401Y-98869034D01*
X86643294Y-99127014D01*
X86828866Y-99353134D01*
X87054986Y-99538706D01*
X87119523Y-99573201D01*
X87002645Y-99642822D01*
X86786412Y-99837731D01*
X86612359Y-100071080D01*
X86487175Y-100333901D01*
X86442524Y-100481110D01*
X86563845Y-100711000D01*
X87757000Y-100711000D01*
X87757000Y-100691000D01*
X88011000Y-100691000D01*
X88011000Y-100711000D01*
X89204155Y-100711000D01*
X89325476Y-100481110D01*
X89280825Y-100333901D01*
X89155641Y-100071080D01*
X88981588Y-99837731D01*
X88765355Y-99642822D01*
X88648477Y-99573201D01*
X88713014Y-99538706D01*
X88939134Y-99353134D01*
X89124706Y-99127014D01*
X89262599Y-98869034D01*
X89347513Y-98589111D01*
X89376185Y-98298000D01*
X113061815Y-98298000D01*
X113090487Y-98589111D01*
X113175401Y-98869034D01*
X113313294Y-99127014D01*
X113498866Y-99353134D01*
X113724986Y-99538706D01*
X113779791Y-99568000D01*
X113724986Y-99597294D01*
X113498866Y-99782866D01*
X113313294Y-100008986D01*
X113175401Y-100266966D01*
X113090487Y-100546889D01*
X113061815Y-100838000D01*
X113090487Y-101129111D01*
X113175401Y-101409034D01*
X113313294Y-101667014D01*
X113498866Y-101893134D01*
X113724986Y-102078706D01*
X113982966Y-102216599D01*
X114262889Y-102301513D01*
X114481050Y-102323000D01*
X114626950Y-102323000D01*
X114845111Y-102301513D01*
X115125034Y-102216599D01*
X115383014Y-102078706D01*
X115609134Y-101893134D01*
X115794706Y-101667014D01*
X115911295Y-101448890D01*
X141560524Y-101448890D01*
X141605175Y-101596099D01*
X141730359Y-101858920D01*
X141904412Y-102092269D01*
X142120645Y-102287178D01*
X142370748Y-102436157D01*
X142645109Y-102533481D01*
X142875000Y-102412814D01*
X142875000Y-101219000D01*
X143129000Y-101219000D01*
X143129000Y-102412814D01*
X143358891Y-102533481D01*
X143633252Y-102436157D01*
X143883355Y-102287178D01*
X144099588Y-102092269D01*
X144273641Y-101858920D01*
X144398825Y-101596099D01*
X144443476Y-101448890D01*
X144322155Y-101219000D01*
X143129000Y-101219000D01*
X142875000Y-101219000D01*
X141681845Y-101219000D01*
X141560524Y-101448890D01*
X115911295Y-101448890D01*
X115932599Y-101409034D01*
X116017513Y-101129111D01*
X116046185Y-100838000D01*
X116017513Y-100546889D01*
X115932599Y-100266966D01*
X115794706Y-100008986D01*
X115609134Y-99782866D01*
X115383014Y-99597294D01*
X115328209Y-99568000D01*
X115383014Y-99538706D01*
X115609134Y-99353134D01*
X115794706Y-99127014D01*
X115932599Y-98869034D01*
X116017513Y-98589111D01*
X116046185Y-98298000D01*
X116017513Y-98006889D01*
X115932599Y-97726966D01*
X115794706Y-97468986D01*
X115609134Y-97242866D01*
X115579313Y-97218393D01*
X115648180Y-97197502D01*
X115758494Y-97138537D01*
X115855185Y-97059185D01*
X115934537Y-96962494D01*
X115993502Y-96852180D01*
X116009937Y-96798000D01*
X118003928Y-96798000D01*
X118003928Y-99798000D01*
X118016188Y-99922482D01*
X118052498Y-100042180D01*
X118111463Y-100152494D01*
X118190815Y-100249185D01*
X118287506Y-100328537D01*
X118397820Y-100387502D01*
X118517518Y-100423812D01*
X118642000Y-100436072D01*
X121642000Y-100436072D01*
X121766482Y-100423812D01*
X121886180Y-100387502D01*
X121996494Y-100328537D01*
X122093185Y-100249185D01*
X122172537Y-100152494D01*
X122231502Y-100042180D01*
X122267812Y-99922482D01*
X122280072Y-99798000D01*
X122280072Y-98552000D01*
X141509815Y-98552000D01*
X141538487Y-98843111D01*
X141623401Y-99123034D01*
X141761294Y-99381014D01*
X141946866Y-99607134D01*
X142172986Y-99792706D01*
X142237523Y-99827201D01*
X142120645Y-99896822D01*
X141904412Y-100091731D01*
X141730359Y-100325080D01*
X141605175Y-100587901D01*
X141560524Y-100735110D01*
X141681845Y-100965000D01*
X142875000Y-100965000D01*
X142875000Y-100945000D01*
X143129000Y-100945000D01*
X143129000Y-100965000D01*
X144322155Y-100965000D01*
X144443476Y-100735110D01*
X144398825Y-100587901D01*
X144273641Y-100325080D01*
X144099588Y-100091731D01*
X143883355Y-99896822D01*
X143766477Y-99827201D01*
X143831014Y-99792706D01*
X144057134Y-99607134D01*
X144242706Y-99381014D01*
X144380599Y-99123034D01*
X144465513Y-98843111D01*
X144494185Y-98552000D01*
X144465513Y-98260889D01*
X144380599Y-97980966D01*
X144242706Y-97722986D01*
X144057134Y-97496866D01*
X144027313Y-97472393D01*
X144096180Y-97451502D01*
X144206494Y-97392537D01*
X144303185Y-97313185D01*
X144382537Y-97216494D01*
X144441502Y-97106180D01*
X144477812Y-96986482D01*
X144490072Y-96862000D01*
X144490072Y-95162000D01*
X144477812Y-95037518D01*
X144441502Y-94917820D01*
X144382537Y-94807506D01*
X144303185Y-94710815D01*
X144206494Y-94631463D01*
X144096180Y-94572498D01*
X143976482Y-94536188D01*
X143852000Y-94523928D01*
X142152000Y-94523928D01*
X142027518Y-94536188D01*
X141907820Y-94572498D01*
X141797506Y-94631463D01*
X141700815Y-94710815D01*
X141621463Y-94807506D01*
X141562498Y-94917820D01*
X141526188Y-95037518D01*
X141513928Y-95162000D01*
X141513928Y-96862000D01*
X141526188Y-96986482D01*
X141562498Y-97106180D01*
X141621463Y-97216494D01*
X141700815Y-97313185D01*
X141797506Y-97392537D01*
X141907820Y-97451502D01*
X141976687Y-97472393D01*
X141946866Y-97496866D01*
X141761294Y-97722986D01*
X141623401Y-97980966D01*
X141538487Y-98260889D01*
X141509815Y-98552000D01*
X122280072Y-98552000D01*
X122280072Y-96798000D01*
X122267812Y-96673518D01*
X122231502Y-96553820D01*
X122172537Y-96443506D01*
X122093185Y-96346815D01*
X121996494Y-96267463D01*
X121886180Y-96208498D01*
X121766482Y-96172188D01*
X121642000Y-96159928D01*
X118642000Y-96159928D01*
X118517518Y-96172188D01*
X118397820Y-96208498D01*
X118287506Y-96267463D01*
X118190815Y-96346815D01*
X118111463Y-96443506D01*
X118052498Y-96553820D01*
X118016188Y-96673518D01*
X118003928Y-96798000D01*
X116009937Y-96798000D01*
X116029812Y-96732482D01*
X116042072Y-96608000D01*
X116042072Y-95162000D01*
X125511928Y-95162000D01*
X125511928Y-96862000D01*
X125524188Y-96986482D01*
X125560498Y-97106180D01*
X125619463Y-97216494D01*
X125698815Y-97313185D01*
X125795506Y-97392537D01*
X125905820Y-97451502D01*
X126025518Y-97487812D01*
X126150000Y-97500072D01*
X127850000Y-97500072D01*
X127974482Y-97487812D01*
X128094180Y-97451502D01*
X128204494Y-97392537D01*
X128301185Y-97313185D01*
X128380537Y-97216494D01*
X128439502Y-97106180D01*
X128460393Y-97037313D01*
X128484866Y-97067134D01*
X128710986Y-97252706D01*
X128968966Y-97390599D01*
X129248889Y-97475513D01*
X129467050Y-97497000D01*
X129612950Y-97497000D01*
X129831111Y-97475513D01*
X130111034Y-97390599D01*
X130369014Y-97252706D01*
X130595134Y-97067134D01*
X130780706Y-96841014D01*
X130810000Y-96786209D01*
X130839294Y-96841014D01*
X131024866Y-97067134D01*
X131250986Y-97252706D01*
X131508966Y-97390599D01*
X131788889Y-97475513D01*
X132007050Y-97497000D01*
X132152950Y-97497000D01*
X132371111Y-97475513D01*
X132651034Y-97390599D01*
X132909014Y-97252706D01*
X133135134Y-97067134D01*
X133320706Y-96841014D01*
X133458599Y-96583034D01*
X133543513Y-96303111D01*
X133572185Y-96012000D01*
X133543513Y-95720889D01*
X133458599Y-95440966D01*
X133320706Y-95182986D01*
X133135134Y-94956866D01*
X132909014Y-94771294D01*
X132651034Y-94633401D01*
X132371111Y-94548487D01*
X132152950Y-94527000D01*
X132007050Y-94527000D01*
X131788889Y-94548487D01*
X131508966Y-94633401D01*
X131250986Y-94771294D01*
X131024866Y-94956866D01*
X130839294Y-95182986D01*
X130810000Y-95237791D01*
X130780706Y-95182986D01*
X130595134Y-94956866D01*
X130369014Y-94771294D01*
X130111034Y-94633401D01*
X129831111Y-94548487D01*
X129612950Y-94527000D01*
X129467050Y-94527000D01*
X129248889Y-94548487D01*
X128968966Y-94633401D01*
X128710986Y-94771294D01*
X128484866Y-94956866D01*
X128460393Y-94986687D01*
X128439502Y-94917820D01*
X128380537Y-94807506D01*
X128301185Y-94710815D01*
X128204494Y-94631463D01*
X128094180Y-94572498D01*
X127974482Y-94536188D01*
X127850000Y-94523928D01*
X126150000Y-94523928D01*
X126025518Y-94536188D01*
X125905820Y-94572498D01*
X125795506Y-94631463D01*
X125698815Y-94710815D01*
X125619463Y-94807506D01*
X125560498Y-94917820D01*
X125524188Y-95037518D01*
X125511928Y-95162000D01*
X116042072Y-95162000D01*
X116042072Y-94908000D01*
X116029812Y-94783518D01*
X115993502Y-94663820D01*
X115934537Y-94553506D01*
X115855185Y-94456815D01*
X115758494Y-94377463D01*
X115648180Y-94318498D01*
X115528482Y-94282188D01*
X115404000Y-94269928D01*
X113704000Y-94269928D01*
X113579518Y-94282188D01*
X113459820Y-94318498D01*
X113349506Y-94377463D01*
X113252815Y-94456815D01*
X113173463Y-94553506D01*
X113114498Y-94663820D01*
X113078188Y-94783518D01*
X113065928Y-94908000D01*
X113065928Y-96608000D01*
X113078188Y-96732482D01*
X113114498Y-96852180D01*
X113173463Y-96962494D01*
X113252815Y-97059185D01*
X113349506Y-97138537D01*
X113459820Y-97197502D01*
X113528687Y-97218393D01*
X113498866Y-97242866D01*
X113313294Y-97468986D01*
X113175401Y-97726966D01*
X113090487Y-98006889D01*
X113061815Y-98298000D01*
X89376185Y-98298000D01*
X89347513Y-98006889D01*
X89262599Y-97726966D01*
X89124706Y-97468986D01*
X88939134Y-97242866D01*
X88909313Y-97218393D01*
X88978180Y-97197502D01*
X89088494Y-97138537D01*
X89185185Y-97059185D01*
X89264537Y-96962494D01*
X89323502Y-96852180D01*
X89359812Y-96732482D01*
X89372072Y-96608000D01*
X89372072Y-94908000D01*
X89359812Y-94783518D01*
X89323502Y-94663820D01*
X89264537Y-94553506D01*
X89185185Y-94456815D01*
X89088494Y-94377463D01*
X88978180Y-94318498D01*
X88858482Y-94282188D01*
X88734000Y-94269928D01*
X87034000Y-94269928D01*
X86909518Y-94282188D01*
X86789820Y-94318498D01*
X86679506Y-94377463D01*
X86614000Y-94431222D01*
X86614000Y-80943588D01*
X86617281Y-80948014D01*
X86825669Y-81136985D01*
X87066919Y-81281670D01*
X87331760Y-81376509D01*
X87553800Y-81255224D01*
X87553800Y-80111600D01*
X87807800Y-80111600D01*
X87807800Y-81255224D01*
X88029840Y-81376509D01*
X88294681Y-81281670D01*
X88535931Y-81136985D01*
X88744319Y-80948014D01*
X88911837Y-80722020D01*
X89032046Y-80467687D01*
X89072704Y-80333639D01*
X88950715Y-80111600D01*
X87807800Y-80111600D01*
X87553800Y-80111600D01*
X87533800Y-80111600D01*
X87533800Y-79857600D01*
X87553800Y-79857600D01*
X87553800Y-79837600D01*
X87807800Y-79837600D01*
X87807800Y-79857600D01*
X88950715Y-79857600D01*
X89072704Y-79635561D01*
X89032046Y-79501513D01*
X88911837Y-79247180D01*
X88744319Y-79021186D01*
X88535931Y-78832215D01*
X88344118Y-78717179D01*
X88481901Y-78643532D01*
X88700408Y-78464208D01*
X88879732Y-78245701D01*
X89012982Y-77996408D01*
X89095036Y-77725909D01*
X89122743Y-77444600D01*
X89095036Y-77163291D01*
X89012982Y-76892792D01*
X88879732Y-76643499D01*
X88700408Y-76424992D01*
X88481901Y-76245668D01*
X88348942Y-76174600D01*
X88481901Y-76103532D01*
X88700408Y-75924208D01*
X88879732Y-75705701D01*
X89012982Y-75456408D01*
X89095036Y-75185909D01*
X89122743Y-74904600D01*
X89095036Y-74623291D01*
X89012982Y-74352792D01*
X88879732Y-74103499D01*
X88700408Y-73884992D01*
X88587318Y-73792181D01*
X88605282Y-73790412D01*
X88724980Y-73754102D01*
X88835294Y-73695137D01*
X88931985Y-73615785D01*
X89011337Y-73519094D01*
X89070302Y-73408780D01*
X89106612Y-73289082D01*
X89118872Y-73164600D01*
X89118872Y-71564600D01*
X89106612Y-71440118D01*
X89070302Y-71320420D01*
X89011337Y-71210106D01*
X88931985Y-71113415D01*
X88835294Y-71034063D01*
X88724980Y-70975098D01*
X88605282Y-70938788D01*
X88480800Y-70926528D01*
X87175708Y-70926528D01*
X87363236Y-70739000D01*
X92417965Y-70739000D01*
X93875418Y-72196454D01*
X93858857Y-72364600D01*
X93886564Y-72645909D01*
X93968618Y-72916408D01*
X94101868Y-73165701D01*
X94281192Y-73384208D01*
X94499699Y-73563532D01*
X94632658Y-73634600D01*
X94499699Y-73705668D01*
X94281192Y-73884992D01*
X94101868Y-74103499D01*
X93968618Y-74352792D01*
X93886564Y-74623291D01*
X93858857Y-74904600D01*
X93886564Y-75185909D01*
X93968618Y-75456408D01*
X94101868Y-75705701D01*
X94281192Y-75924208D01*
X94499699Y-76103532D01*
X94632658Y-76174600D01*
X94499699Y-76245668D01*
X94281192Y-76424992D01*
X94101868Y-76643499D01*
X93968618Y-76892792D01*
X93886564Y-77163291D01*
X93858857Y-77444600D01*
X93886564Y-77725909D01*
X93968618Y-77996408D01*
X94101868Y-78245701D01*
X94281192Y-78464208D01*
X94499699Y-78643532D01*
X94632658Y-78714600D01*
X94499699Y-78785668D01*
X94281192Y-78964992D01*
X94101868Y-79183499D01*
X93968618Y-79432792D01*
X93886564Y-79703291D01*
X93858857Y-79984600D01*
X93886564Y-80265909D01*
X93968618Y-80536408D01*
X94101868Y-80785701D01*
X94281192Y-81004208D01*
X94499699Y-81183532D01*
X94748992Y-81316782D01*
X95019491Y-81398836D01*
X95230308Y-81419600D01*
X95371292Y-81419600D01*
X95582109Y-81398836D01*
X95852608Y-81316782D01*
X96101901Y-81183532D01*
X96320408Y-81004208D01*
X96499732Y-80785701D01*
X96632982Y-80536408D01*
X96647164Y-80489653D01*
X118729952Y-80489653D01*
X118885962Y-80805214D01*
X119260745Y-80996020D01*
X119665551Y-81110044D01*
X120084824Y-81142902D01*
X120502451Y-81093334D01*
X120902383Y-80963243D01*
X121198038Y-80805214D01*
X121354048Y-80489653D01*
X120042000Y-79177605D01*
X118729952Y-80489653D01*
X96647164Y-80489653D01*
X96715036Y-80265909D01*
X96742743Y-79984600D01*
X96715036Y-79703291D01*
X96632982Y-79432792D01*
X96499732Y-79183499D01*
X96320408Y-78964992D01*
X96171627Y-78842890D01*
X104984524Y-78842890D01*
X105029175Y-78990099D01*
X105154359Y-79252920D01*
X105328412Y-79486269D01*
X105544645Y-79681178D01*
X105794748Y-79830157D01*
X106069109Y-79927481D01*
X106299000Y-79806814D01*
X106299000Y-78613000D01*
X106553000Y-78613000D01*
X106553000Y-79806814D01*
X106782891Y-79927481D01*
X107057252Y-79830157D01*
X107307355Y-79681178D01*
X107523588Y-79486269D01*
X107697641Y-79252920D01*
X107798664Y-79040824D01*
X117897098Y-79040824D01*
X117946666Y-79458451D01*
X118076757Y-79858383D01*
X118234786Y-80154038D01*
X118550347Y-80310048D01*
X119862395Y-78998000D01*
X120221605Y-78998000D01*
X121533653Y-80310048D01*
X121774451Y-80191000D01*
X135309600Y-80191000D01*
X135309600Y-80851400D01*
X135363172Y-81141322D01*
X135472275Y-81415222D01*
X135632717Y-81662574D01*
X135838332Y-81873873D01*
X136081219Y-82040998D01*
X136352043Y-82157527D01*
X136449174Y-82179358D01*
X136681200Y-82058217D01*
X136681200Y-80191000D01*
X136935200Y-80191000D01*
X136935200Y-82058217D01*
X137167226Y-82179358D01*
X137264357Y-82157527D01*
X137535181Y-82040998D01*
X137778068Y-81873873D01*
X137983683Y-81662574D01*
X138144125Y-81415222D01*
X138253228Y-81141322D01*
X138306800Y-80851400D01*
X138306800Y-80191000D01*
X136935200Y-80191000D01*
X136681200Y-80191000D01*
X135309600Y-80191000D01*
X121774451Y-80191000D01*
X121849214Y-80154038D01*
X122040020Y-79779255D01*
X122154044Y-79374449D01*
X122161712Y-79276600D01*
X135309600Y-79276600D01*
X135309600Y-79937000D01*
X136681200Y-79937000D01*
X136681200Y-78069783D01*
X136935200Y-78069783D01*
X136935200Y-79937000D01*
X138306800Y-79937000D01*
X138306800Y-79329981D01*
X140309600Y-79329981D01*
X140309600Y-80798018D01*
X140331284Y-81018176D01*
X140416975Y-81300663D01*
X140556131Y-81561005D01*
X140743403Y-81789197D01*
X140971594Y-81976469D01*
X141231936Y-82115625D01*
X141514423Y-82201316D01*
X141808200Y-82230251D01*
X142101976Y-82201316D01*
X142384463Y-82115625D01*
X142644805Y-81976469D01*
X142872997Y-81789197D01*
X143060269Y-81561006D01*
X143199425Y-81300664D01*
X143285116Y-81018177D01*
X143306800Y-80798019D01*
X143306800Y-79329981D01*
X143285116Y-79109823D01*
X143199425Y-78827336D01*
X143060269Y-78566994D01*
X142872997Y-78338803D01*
X142644806Y-78151531D01*
X142384464Y-78012375D01*
X142101977Y-77926684D01*
X141808200Y-77897749D01*
X141514424Y-77926684D01*
X141231937Y-78012375D01*
X140971595Y-78151531D01*
X140743404Y-78338803D01*
X140556132Y-78566994D01*
X140416975Y-78827336D01*
X140331284Y-79109823D01*
X140309600Y-79329981D01*
X138306800Y-79329981D01*
X138306800Y-79276600D01*
X138253228Y-78986678D01*
X138144125Y-78712778D01*
X137983683Y-78465426D01*
X137778068Y-78254127D01*
X137535181Y-78087002D01*
X137264357Y-77970473D01*
X137167226Y-77948642D01*
X136935200Y-78069783D01*
X136681200Y-78069783D01*
X136449174Y-77948642D01*
X136352043Y-77970473D01*
X136081219Y-78087002D01*
X135838332Y-78254127D01*
X135632717Y-78465426D01*
X135472275Y-78712778D01*
X135363172Y-78986678D01*
X135309600Y-79276600D01*
X122161712Y-79276600D01*
X122186902Y-78955176D01*
X122137334Y-78537549D01*
X122007243Y-78137617D01*
X121849214Y-77841962D01*
X121533653Y-77685952D01*
X120221605Y-78998000D01*
X119862395Y-78998000D01*
X118550347Y-77685952D01*
X118234786Y-77841962D01*
X118043980Y-78216745D01*
X117929956Y-78621551D01*
X117897098Y-79040824D01*
X107798664Y-79040824D01*
X107822825Y-78990099D01*
X107867476Y-78842890D01*
X107746155Y-78613000D01*
X106553000Y-78613000D01*
X106299000Y-78613000D01*
X105105845Y-78613000D01*
X104984524Y-78842890D01*
X96171627Y-78842890D01*
X96101901Y-78785668D01*
X95968942Y-78714600D01*
X96101901Y-78643532D01*
X96320408Y-78464208D01*
X96499732Y-78245701D01*
X96632982Y-77996408D01*
X96715036Y-77725909D01*
X96742743Y-77444600D01*
X96715036Y-77163291D01*
X96632982Y-76892792D01*
X96499732Y-76643499D01*
X96320408Y-76424992D01*
X96101901Y-76245668D01*
X95968942Y-76174600D01*
X96101901Y-76103532D01*
X96293854Y-75946000D01*
X104933815Y-75946000D01*
X104962487Y-76237111D01*
X105047401Y-76517034D01*
X105185294Y-76775014D01*
X105370866Y-77001134D01*
X105596986Y-77186706D01*
X105661523Y-77221201D01*
X105544645Y-77290822D01*
X105328412Y-77485731D01*
X105154359Y-77719080D01*
X105029175Y-77981901D01*
X104984524Y-78129110D01*
X105105845Y-78359000D01*
X106299000Y-78359000D01*
X106299000Y-78339000D01*
X106553000Y-78339000D01*
X106553000Y-78359000D01*
X107746155Y-78359000D01*
X107867476Y-78129110D01*
X107822825Y-77981901D01*
X107697641Y-77719080D01*
X107538966Y-77506347D01*
X118729952Y-77506347D01*
X120042000Y-78818395D01*
X121354048Y-77506347D01*
X121198038Y-77190786D01*
X120823255Y-76999980D01*
X120418449Y-76885956D01*
X119999176Y-76853098D01*
X119581549Y-76902666D01*
X119181617Y-77032757D01*
X118885962Y-77190786D01*
X118729952Y-77506347D01*
X107538966Y-77506347D01*
X107523588Y-77485731D01*
X107307355Y-77290822D01*
X107190477Y-77221201D01*
X107255014Y-77186706D01*
X107481134Y-77001134D01*
X107666706Y-76775014D01*
X107804599Y-76517034D01*
X107889513Y-76237111D01*
X107918185Y-75946000D01*
X107889513Y-75654889D01*
X107804599Y-75374966D01*
X107666706Y-75116986D01*
X107481134Y-74890866D01*
X107451313Y-74866393D01*
X107520180Y-74845502D01*
X107630494Y-74786537D01*
X107727185Y-74707185D01*
X107806537Y-74610494D01*
X107865502Y-74500180D01*
X107901812Y-74380482D01*
X107914072Y-74256000D01*
X107914072Y-72556000D01*
X107901812Y-72431518D01*
X107865502Y-72311820D01*
X107806537Y-72201506D01*
X107727185Y-72104815D01*
X107630494Y-72025463D01*
X107520180Y-71966498D01*
X107400482Y-71930188D01*
X107276000Y-71917928D01*
X105576000Y-71917928D01*
X105451518Y-71930188D01*
X105331820Y-71966498D01*
X105221506Y-72025463D01*
X105124815Y-72104815D01*
X105045463Y-72201506D01*
X104986498Y-72311820D01*
X104950188Y-72431518D01*
X104937928Y-72556000D01*
X104937928Y-74256000D01*
X104950188Y-74380482D01*
X104986498Y-74500180D01*
X105045463Y-74610494D01*
X105124815Y-74707185D01*
X105221506Y-74786537D01*
X105331820Y-74845502D01*
X105400687Y-74866393D01*
X105370866Y-74890866D01*
X105185294Y-75116986D01*
X105047401Y-75374966D01*
X104962487Y-75654889D01*
X104933815Y-75946000D01*
X96293854Y-75946000D01*
X96320408Y-75924208D01*
X96499732Y-75705701D01*
X96632982Y-75456408D01*
X96715036Y-75185909D01*
X96742743Y-74904600D01*
X96715036Y-74623291D01*
X96632982Y-74352792D01*
X96499732Y-74103499D01*
X96320408Y-73884992D01*
X96101901Y-73705668D01*
X95968942Y-73634600D01*
X96101901Y-73563532D01*
X96320408Y-73384208D01*
X96499732Y-73165701D01*
X96632982Y-72916408D01*
X96715036Y-72645909D01*
X96742743Y-72364600D01*
X96715036Y-72083291D01*
X96632982Y-71812792D01*
X96499732Y-71563499D01*
X96320408Y-71344992D01*
X96101901Y-71165668D01*
X95852608Y-71032418D01*
X95582109Y-70950364D01*
X95371292Y-70929600D01*
X95230308Y-70929600D01*
X95132654Y-70939218D01*
X93445699Y-69252264D01*
X93417859Y-69218341D01*
X93282491Y-69107247D01*
X93128051Y-69024697D01*
X92960474Y-68973864D01*
X92829867Y-68961000D01*
X92829860Y-68961000D01*
X92786200Y-68956700D01*
X92742540Y-68961000D01*
X87038659Y-68961000D01*
X86994999Y-68956700D01*
X86951339Y-68961000D01*
X86951333Y-68961000D01*
X86853924Y-68970594D01*
X86820724Y-68973864D01*
X86719058Y-69004704D01*
X86653149Y-69024697D01*
X86498709Y-69107247D01*
X86363341Y-69218341D01*
X86335506Y-69252259D01*
X85929491Y-69658274D01*
X85923294Y-67774117D01*
X96055000Y-67774117D01*
X96055000Y-68115883D01*
X96121675Y-68451081D01*
X96252463Y-68766831D01*
X96442337Y-69050998D01*
X96684002Y-69292663D01*
X96968169Y-69482537D01*
X97283919Y-69613325D01*
X97619117Y-69680000D01*
X97960883Y-69680000D01*
X98296081Y-69613325D01*
X98611831Y-69482537D01*
X98895998Y-69292663D01*
X99137663Y-69050998D01*
X99327537Y-68766831D01*
X99458325Y-68451081D01*
X99525000Y-68115883D01*
X99525000Y-67774117D01*
X127805000Y-67774117D01*
X127805000Y-68115883D01*
X127871675Y-68451081D01*
X128002463Y-68766831D01*
X128192337Y-69050998D01*
X128434002Y-69292663D01*
X128718169Y-69482537D01*
X129033919Y-69613325D01*
X129369117Y-69680000D01*
X129710883Y-69680000D01*
X130046081Y-69613325D01*
X130361831Y-69482537D01*
X130645998Y-69292663D01*
X130887663Y-69050998D01*
X131077537Y-68766831D01*
X131208325Y-68451081D01*
X131275000Y-68115883D01*
X131275000Y-67774117D01*
X131258468Y-67691000D01*
X135309600Y-67691000D01*
X135309600Y-68351400D01*
X135363172Y-68641322D01*
X135472275Y-68915222D01*
X135632717Y-69162574D01*
X135838332Y-69373873D01*
X136081219Y-69540998D01*
X136352043Y-69657527D01*
X136449174Y-69679358D01*
X136681200Y-69558217D01*
X136681200Y-67691000D01*
X136935200Y-67691000D01*
X136935200Y-69558217D01*
X137167226Y-69679358D01*
X137264357Y-69657527D01*
X137535181Y-69540998D01*
X137778068Y-69373873D01*
X137983683Y-69162574D01*
X138144125Y-68915222D01*
X138253228Y-68641322D01*
X138306800Y-68351400D01*
X138306800Y-67691000D01*
X136935200Y-67691000D01*
X136681200Y-67691000D01*
X135309600Y-67691000D01*
X131258468Y-67691000D01*
X131208325Y-67438919D01*
X131077537Y-67123169D01*
X130887663Y-66839002D01*
X130645998Y-66597337D01*
X130361831Y-66407463D01*
X130046081Y-66276675D01*
X129710883Y-66210000D01*
X129369117Y-66210000D01*
X129033919Y-66276675D01*
X128718169Y-66407463D01*
X128434002Y-66597337D01*
X128192337Y-66839002D01*
X128002463Y-67123169D01*
X127871675Y-67438919D01*
X127805000Y-67774117D01*
X99525000Y-67774117D01*
X99458325Y-67438919D01*
X99327537Y-67123169D01*
X99137663Y-66839002D01*
X98895998Y-66597337D01*
X98611831Y-66407463D01*
X98296081Y-66276675D01*
X97960883Y-66210000D01*
X97619117Y-66210000D01*
X97283919Y-66276675D01*
X96968169Y-66407463D01*
X96684002Y-66597337D01*
X96442337Y-66839002D01*
X96252463Y-67123169D01*
X96121675Y-67438919D01*
X96055000Y-67774117D01*
X85923294Y-67774117D01*
X85916000Y-65557000D01*
X136150946Y-65557000D01*
X136081219Y-65587002D01*
M02*
