G04 #@! TF.GenerationSoftware,KiCad,Pcbnew,(5.1.2-1)-1*
G04 #@! TF.CreationDate,2020-01-28T06:09:07-07:00*
G04 #@! TF.ProjectId,tiny_stick,74696e79-5f73-4746-9963-6b2e6b696361,rev?*
G04 #@! TF.SameCoordinates,Original*
G04 #@! TF.FileFunction,Legend,Bot*
G04 #@! TF.FilePolarity,Positive*
%FSLAX46Y46*%
G04 Gerber Fmt 4.6, Leading zero omitted, Abs format (unit mm)*
G04 Created by KiCad (PCBNEW (5.1.2-1)-1) date 2020-01-28 06:09:07*
%MOMM*%
%LPD*%
G04 APERTURE LIST*
%ADD10C,0.120000*%
%ADD11C,0.150000*%
G04 APERTURE END LIST*
D10*
X117142000Y-100498000D02*
X117142000Y-94798000D01*
X117142000Y-100498000D02*
X123142000Y-100498000D01*
X123142000Y-100498000D02*
X123142000Y-94798000D01*
X123668384Y-94046246D02*
G75*
G03X123142000Y-94798000I273616J-751754D01*
G01*
X120096719Y-71602329D02*
G75*
G02X123642000Y-94048000I45281J-11495671D01*
G01*
X116615616Y-94046246D02*
G75*
G02X117142000Y-94798000I-273616J-751754D01*
G01*
X120187281Y-71602329D02*
G75*
G03X116642000Y-94048000I-45281J-11495671D01*
G01*
D11*
X124370571Y-97512285D02*
X124418190Y-97655142D01*
X124465809Y-97702761D01*
X124561047Y-97750380D01*
X124703904Y-97750380D01*
X124799142Y-97702761D01*
X124846761Y-97655142D01*
X124894380Y-97559904D01*
X124894380Y-97178952D01*
X123894380Y-97178952D01*
X123894380Y-97512285D01*
X123942000Y-97607523D01*
X123989619Y-97655142D01*
X124084857Y-97702761D01*
X124180095Y-97702761D01*
X124275333Y-97655142D01*
X124322952Y-97607523D01*
X124370571Y-97512285D01*
X124370571Y-97178952D01*
X123894380Y-98036095D02*
X123894380Y-98607523D01*
X124894380Y-98321809D02*
X123894380Y-98321809D01*
X124894380Y-99464666D02*
X124894380Y-98893238D01*
X124894380Y-99178952D02*
X123894380Y-99178952D01*
X124037238Y-99083714D01*
X124132476Y-98988476D01*
X124180095Y-98893238D01*
X120249142Y-94976571D02*
X120249142Y-96119428D01*
X120820571Y-95548000D02*
X119677714Y-95548000D01*
M02*
