G04 #@! TF.GenerationSoftware,KiCad,Pcbnew,(5.1.2-1)-1*
G04 #@! TF.CreationDate,2020-01-28T06:09:07-07:00*
G04 #@! TF.ProjectId,tiny_stick,74696e79-5f73-4746-9963-6b2e6b696361,rev?*
G04 #@! TF.SameCoordinates,Original*
G04 #@! TF.FileFunction,Legend,Top*
G04 #@! TF.FilePolarity,Positive*
%FSLAX46Y46*%
G04 Gerber Fmt 4.6, Leading zero omitted, Abs format (unit mm)*
G04 Created by KiCad (PCBNEW (5.1.2-1)-1) date 2020-01-28 06:09:07*
%MOMM*%
%LPD*%
G04 APERTURE LIST*
%ADD10C,0.150000*%
%ADD11C,0.120000*%
%ADD12C,0.010000*%
G04 APERTURE END LIST*
D10*
X124301904Y-101417380D02*
X124301904Y-100417380D01*
X124778095Y-100750714D02*
X124778095Y-101417380D01*
X124778095Y-100845952D02*
X124825714Y-100798333D01*
X124920952Y-100750714D01*
X125063809Y-100750714D01*
X125159047Y-100798333D01*
X125206666Y-100893571D01*
X125206666Y-101417380D01*
X125540000Y-100750714D02*
X125920952Y-100750714D01*
X125682857Y-100417380D02*
X125682857Y-101274523D01*
X125730476Y-101369761D01*
X125825714Y-101417380D01*
X125920952Y-101417380D01*
X126635238Y-101369761D02*
X126540000Y-101417380D01*
X126349523Y-101417380D01*
X126254285Y-101369761D01*
X126206666Y-101274523D01*
X126206666Y-100893571D01*
X126254285Y-100798333D01*
X126349523Y-100750714D01*
X126540000Y-100750714D01*
X126635238Y-100798333D01*
X126682857Y-100893571D01*
X126682857Y-100988809D01*
X126206666Y-101084047D01*
X127111428Y-101417380D02*
X127111428Y-100750714D01*
X127111428Y-100941190D02*
X127159047Y-100845952D01*
X127206666Y-100798333D01*
X127301904Y-100750714D01*
X127397142Y-100750714D01*
X127730476Y-100750714D02*
X127730476Y-101417380D01*
X127730476Y-100845952D02*
X127778095Y-100798333D01*
X127873333Y-100750714D01*
X128016190Y-100750714D01*
X128111428Y-100798333D01*
X128159047Y-100893571D01*
X128159047Y-101417380D01*
X129063809Y-101417380D02*
X129063809Y-100893571D01*
X129016190Y-100798333D01*
X128920952Y-100750714D01*
X128730476Y-100750714D01*
X128635238Y-100798333D01*
X129063809Y-101369761D02*
X128968571Y-101417380D01*
X128730476Y-101417380D01*
X128635238Y-101369761D01*
X128587619Y-101274523D01*
X128587619Y-101179285D01*
X128635238Y-101084047D01*
X128730476Y-101036428D01*
X128968571Y-101036428D01*
X129063809Y-100988809D01*
X129682857Y-101417380D02*
X129587619Y-101369761D01*
X129540000Y-101274523D01*
X129540000Y-100417380D01*
X130825714Y-101417380D02*
X130825714Y-100417380D01*
X131206666Y-100417380D01*
X131301904Y-100465000D01*
X131349523Y-100512619D01*
X131397142Y-100607857D01*
X131397142Y-100750714D01*
X131349523Y-100845952D01*
X131301904Y-100893571D01*
X131206666Y-100941190D01*
X130825714Y-100941190D01*
X131968571Y-101417380D02*
X131873333Y-101369761D01*
X131825714Y-101322142D01*
X131778095Y-101226904D01*
X131778095Y-100941190D01*
X131825714Y-100845952D01*
X131873333Y-100798333D01*
X131968571Y-100750714D01*
X132111428Y-100750714D01*
X132206666Y-100798333D01*
X132254285Y-100845952D01*
X132301904Y-100941190D01*
X132301904Y-101226904D01*
X132254285Y-101322142D01*
X132206666Y-101369761D01*
X132111428Y-101417380D01*
X131968571Y-101417380D01*
X132635238Y-100750714D02*
X132825714Y-101417380D01*
X133016190Y-100941190D01*
X133206666Y-101417380D01*
X133397142Y-100750714D01*
X134159047Y-101369761D02*
X134063809Y-101417380D01*
X133873333Y-101417380D01*
X133778095Y-101369761D01*
X133730476Y-101274523D01*
X133730476Y-100893571D01*
X133778095Y-100798333D01*
X133873333Y-100750714D01*
X134063809Y-100750714D01*
X134159047Y-100798333D01*
X134206666Y-100893571D01*
X134206666Y-100988809D01*
X133730476Y-101084047D01*
X134635238Y-101417380D02*
X134635238Y-100750714D01*
X134635238Y-100941190D02*
X134682857Y-100845952D01*
X134730476Y-100798333D01*
X134825714Y-100750714D01*
X134920952Y-100750714D01*
X131127619Y-98766380D02*
X131318095Y-98766380D01*
X131413333Y-98814000D01*
X131508571Y-98909238D01*
X131556190Y-99099714D01*
X131556190Y-99433047D01*
X131508571Y-99623523D01*
X131413333Y-99718761D01*
X131318095Y-99766380D01*
X131127619Y-99766380D01*
X131032380Y-99718761D01*
X130937142Y-99623523D01*
X130889523Y-99433047D01*
X130889523Y-99099714D01*
X130937142Y-98909238D01*
X131032380Y-98814000D01*
X131127619Y-98766380D01*
X132318095Y-99242571D02*
X131984761Y-99242571D01*
X131984761Y-99766380D02*
X131984761Y-98766380D01*
X132460952Y-98766380D01*
X133175238Y-99242571D02*
X132841904Y-99242571D01*
X132841904Y-99766380D02*
X132841904Y-98766380D01*
X133318095Y-98766380D01*
X126380952Y-98766380D02*
X126571428Y-98766380D01*
X126666666Y-98814000D01*
X126761904Y-98909238D01*
X126809523Y-99099714D01*
X126809523Y-99433047D01*
X126761904Y-99623523D01*
X126666666Y-99718761D01*
X126571428Y-99766380D01*
X126380952Y-99766380D01*
X126285714Y-99718761D01*
X126190476Y-99623523D01*
X126142857Y-99433047D01*
X126142857Y-99099714D01*
X126190476Y-98909238D01*
X126285714Y-98814000D01*
X126380952Y-98766380D01*
X127238095Y-99766380D02*
X127238095Y-98766380D01*
X127809523Y-99766380D01*
X127809523Y-98766380D01*
X94734000Y-98552095D02*
X94781619Y-98456857D01*
X94781619Y-98314000D01*
X94734000Y-98171142D01*
X94638761Y-98075904D01*
X94543523Y-98028285D01*
X94353047Y-97980666D01*
X94210190Y-97980666D01*
X94019714Y-98028285D01*
X93924476Y-98075904D01*
X93829238Y-98171142D01*
X93781619Y-98314000D01*
X93781619Y-98409238D01*
X93829238Y-98552095D01*
X93876857Y-98599714D01*
X94210190Y-98599714D01*
X94210190Y-98409238D01*
X93781619Y-99028285D02*
X94781619Y-99028285D01*
X93781619Y-99599714D01*
X94781619Y-99599714D01*
X93781619Y-100075904D02*
X94781619Y-100075904D01*
X94781619Y-100314000D01*
X94734000Y-100456857D01*
X94638761Y-100552095D01*
X94543523Y-100599714D01*
X94353047Y-100647333D01*
X94210190Y-100647333D01*
X94019714Y-100599714D01*
X93924476Y-100552095D01*
X93829238Y-100456857D01*
X93781619Y-100314000D01*
X93781619Y-100075904D01*
X97575619Y-98544190D02*
X96575619Y-98877523D01*
X97575619Y-99210857D01*
X96575619Y-99544190D02*
X97242285Y-99544190D01*
X97575619Y-99544190D02*
X97528000Y-99496571D01*
X97480380Y-99544190D01*
X97528000Y-99591809D01*
X97575619Y-99544190D01*
X97480380Y-99544190D01*
X97242285Y-100020380D02*
X96575619Y-100020380D01*
X97147047Y-100020380D02*
X97194666Y-100068000D01*
X97242285Y-100163238D01*
X97242285Y-100306095D01*
X97194666Y-100401333D01*
X97099428Y-100448952D01*
X96575619Y-100448952D01*
D11*
X116586000Y-97790000D02*
X116586000Y-101854000D01*
X116840000Y-95123000D02*
X116840000Y-98933000D01*
D10*
X117244857Y-98988666D02*
X117197238Y-98941047D01*
X117149619Y-98798190D01*
X117149619Y-98702952D01*
X117197238Y-98560095D01*
X117292476Y-98464857D01*
X117387714Y-98417238D01*
X117578190Y-98369619D01*
X117721047Y-98369619D01*
X117911523Y-98417238D01*
X118006761Y-98464857D01*
X118102000Y-98560095D01*
X118149619Y-98702952D01*
X118149619Y-98798190D01*
X118102000Y-98941047D01*
X118054380Y-98988666D01*
X117149619Y-99560095D02*
X117197238Y-99464857D01*
X117244857Y-99417238D01*
X117340095Y-99369619D01*
X117625809Y-99369619D01*
X117721047Y-99417238D01*
X117768666Y-99464857D01*
X117816285Y-99560095D01*
X117816285Y-99702952D01*
X117768666Y-99798190D01*
X117721047Y-99845809D01*
X117625809Y-99893428D01*
X117340095Y-99893428D01*
X117244857Y-99845809D01*
X117197238Y-99798190D01*
X117149619Y-99702952D01*
X117149619Y-99560095D01*
X117149619Y-100322000D02*
X117816285Y-100322000D01*
X118149619Y-100322000D02*
X118102000Y-100274380D01*
X118054380Y-100322000D01*
X118102000Y-100369619D01*
X118149619Y-100322000D01*
X118054380Y-100322000D01*
X117816285Y-100798190D02*
X117149619Y-100798190D01*
X117721047Y-100798190D02*
X117768666Y-100845809D01*
X117816285Y-100941047D01*
X117816285Y-101083904D01*
X117768666Y-101179142D01*
X117673428Y-101226761D01*
X117149619Y-101226761D01*
X118276619Y-95242190D02*
X117276619Y-95575523D01*
X118276619Y-95908857D01*
X117276619Y-96242190D02*
X117943285Y-96242190D01*
X118276619Y-96242190D02*
X118229000Y-96194571D01*
X118181380Y-96242190D01*
X118229000Y-96289809D01*
X118276619Y-96242190D01*
X118181380Y-96242190D01*
X117943285Y-96718380D02*
X117276619Y-96718380D01*
X117848047Y-96718380D02*
X117895666Y-96766000D01*
X117943285Y-96861238D01*
X117943285Y-97004095D01*
X117895666Y-97099333D01*
X117800428Y-97146952D01*
X117276619Y-97146952D01*
X110046000Y-103830380D02*
X110046000Y-102830380D01*
X110522190Y-103163714D02*
X110522190Y-103830380D01*
X110522190Y-103258952D02*
X110569809Y-103211333D01*
X110665047Y-103163714D01*
X110807904Y-103163714D01*
X110903142Y-103211333D01*
X110950761Y-103306571D01*
X110950761Y-103830380D01*
X111284095Y-103163714D02*
X111665047Y-103163714D01*
X111426952Y-102830380D02*
X111426952Y-103687523D01*
X111474571Y-103782761D01*
X111569809Y-103830380D01*
X111665047Y-103830380D01*
X112760285Y-103830380D02*
X112760285Y-102830380D01*
X113141238Y-102830380D01*
X113236476Y-102878000D01*
X113284095Y-102925619D01*
X113331714Y-103020857D01*
X113331714Y-103163714D01*
X113284095Y-103258952D01*
X113236476Y-103306571D01*
X113141238Y-103354190D01*
X112760285Y-103354190D01*
X113665047Y-103163714D02*
X113855523Y-103830380D01*
X114046000Y-103354190D01*
X114236476Y-103830380D01*
X114426952Y-103163714D01*
X114807904Y-103830380D02*
X114807904Y-103163714D01*
X114807904Y-103354190D02*
X114855523Y-103258952D01*
X114903142Y-103211333D01*
X114998380Y-103163714D01*
X115093619Y-103163714D01*
X116141238Y-103782761D02*
X116284095Y-103830380D01*
X116522190Y-103830380D01*
X116617428Y-103782761D01*
X116665047Y-103735142D01*
X116712666Y-103639904D01*
X116712666Y-103544666D01*
X116665047Y-103449428D01*
X116617428Y-103401809D01*
X116522190Y-103354190D01*
X116331714Y-103306571D01*
X116236476Y-103258952D01*
X116188857Y-103211333D01*
X116141238Y-103116095D01*
X116141238Y-103020857D01*
X116188857Y-102925619D01*
X116236476Y-102878000D01*
X116331714Y-102830380D01*
X116569809Y-102830380D01*
X116712666Y-102878000D01*
X117522190Y-103782761D02*
X117426952Y-103830380D01*
X117236476Y-103830380D01*
X117141238Y-103782761D01*
X117093619Y-103687523D01*
X117093619Y-103306571D01*
X117141238Y-103211333D01*
X117236476Y-103163714D01*
X117426952Y-103163714D01*
X117522190Y-103211333D01*
X117569809Y-103306571D01*
X117569809Y-103401809D01*
X117093619Y-103497047D01*
X118141238Y-103830380D02*
X118046000Y-103782761D01*
X117998380Y-103687523D01*
X117998380Y-102830380D01*
X138938095Y-100592000D02*
X138842857Y-100544380D01*
X138700000Y-100544380D01*
X138557142Y-100592000D01*
X138461904Y-100687238D01*
X138414285Y-100782476D01*
X138366666Y-100972952D01*
X138366666Y-101115809D01*
X138414285Y-101306285D01*
X138461904Y-101401523D01*
X138557142Y-101496761D01*
X138700000Y-101544380D01*
X138795238Y-101544380D01*
X138938095Y-101496761D01*
X138985714Y-101449142D01*
X138985714Y-101115809D01*
X138795238Y-101115809D01*
X139414285Y-101544380D02*
X139414285Y-100544380D01*
X139985714Y-101544380D01*
X139985714Y-100544380D01*
X140461904Y-101544380D02*
X140461904Y-100544380D01*
X140700000Y-100544380D01*
X140842857Y-100592000D01*
X140938095Y-100687238D01*
X140985714Y-100782476D01*
X141033333Y-100972952D01*
X141033333Y-101115809D01*
X140985714Y-101306285D01*
X140938095Y-101401523D01*
X140842857Y-101496761D01*
X140700000Y-101544380D01*
X140461904Y-101544380D01*
X138247619Y-98877380D02*
X138247619Y-97877380D01*
X138485714Y-97877380D01*
X138628571Y-97925000D01*
X138723809Y-98020238D01*
X138771428Y-98115476D01*
X138819047Y-98305952D01*
X138819047Y-98448809D01*
X138771428Y-98639285D01*
X138723809Y-98734523D01*
X138628571Y-98829761D01*
X138485714Y-98877380D01*
X138247619Y-98877380D01*
X139390476Y-98877380D02*
X139295238Y-98829761D01*
X139247619Y-98782142D01*
X139200000Y-98686904D01*
X139200000Y-98401190D01*
X139247619Y-98305952D01*
X139295238Y-98258333D01*
X139390476Y-98210714D01*
X139533333Y-98210714D01*
X139628571Y-98258333D01*
X139676190Y-98305952D01*
X139723809Y-98401190D01*
X139723809Y-98686904D01*
X139676190Y-98782142D01*
X139628571Y-98829761D01*
X139533333Y-98877380D01*
X139390476Y-98877380D01*
X140580952Y-98210714D02*
X140580952Y-98877380D01*
X140152380Y-98210714D02*
X140152380Y-98734523D01*
X140200000Y-98829761D01*
X140295238Y-98877380D01*
X140438095Y-98877380D01*
X140533333Y-98829761D01*
X140580952Y-98782142D01*
X140914285Y-98210714D02*
X141295238Y-98210714D01*
X141057142Y-97877380D02*
X141057142Y-98734523D01*
X141104761Y-98829761D01*
X141200000Y-98877380D01*
X141295238Y-98877380D01*
X139477857Y-96083428D02*
X140239761Y-96083428D01*
X139858809Y-96464380D02*
X139858809Y-95702476D01*
X141192142Y-95464380D02*
X140715952Y-95464380D01*
X140668333Y-95940571D01*
X140715952Y-95892952D01*
X140811190Y-95845333D01*
X141049285Y-95845333D01*
X141144523Y-95892952D01*
X141192142Y-95940571D01*
X141239761Y-96035809D01*
X141239761Y-96273904D01*
X141192142Y-96369142D01*
X141144523Y-96416761D01*
X141049285Y-96464380D01*
X140811190Y-96464380D01*
X140715952Y-96416761D01*
X140668333Y-96369142D01*
X90043095Y-100465000D02*
X89947857Y-100417380D01*
X89805000Y-100417380D01*
X89662142Y-100465000D01*
X89566904Y-100560238D01*
X89519285Y-100655476D01*
X89471666Y-100845952D01*
X89471666Y-100988809D01*
X89519285Y-101179285D01*
X89566904Y-101274523D01*
X89662142Y-101369761D01*
X89805000Y-101417380D01*
X89900238Y-101417380D01*
X90043095Y-101369761D01*
X90090714Y-101322142D01*
X90090714Y-100988809D01*
X89900238Y-100988809D01*
X90519285Y-101417380D02*
X90519285Y-100417380D01*
X91090714Y-101417380D01*
X91090714Y-100417380D01*
X91566904Y-101417380D02*
X91566904Y-100417380D01*
X91805000Y-100417380D01*
X91947857Y-100465000D01*
X92043095Y-100560238D01*
X92090714Y-100655476D01*
X92138333Y-100845952D01*
X92138333Y-100988809D01*
X92090714Y-101179285D01*
X92043095Y-101274523D01*
X91947857Y-101369761D01*
X91805000Y-101417380D01*
X91566904Y-101417380D01*
X89312857Y-95956428D02*
X90074761Y-95956428D01*
X89693809Y-96337380D02*
X89693809Y-95575476D01*
X91027142Y-95337380D02*
X90550952Y-95337380D01*
X90503333Y-95813571D01*
X90550952Y-95765952D01*
X90646190Y-95718333D01*
X90884285Y-95718333D01*
X90979523Y-95765952D01*
X91027142Y-95813571D01*
X91074761Y-95908809D01*
X91074761Y-96146904D01*
X91027142Y-96242142D01*
X90979523Y-96289761D01*
X90884285Y-96337380D01*
X90646190Y-96337380D01*
X90550952Y-96289761D01*
X90503333Y-96242142D01*
X89852619Y-98877380D02*
X89852619Y-97877380D01*
X90090714Y-97877380D01*
X90233571Y-97925000D01*
X90328809Y-98020238D01*
X90376428Y-98115476D01*
X90424047Y-98305952D01*
X90424047Y-98448809D01*
X90376428Y-98639285D01*
X90328809Y-98734523D01*
X90233571Y-98829761D01*
X90090714Y-98877380D01*
X89852619Y-98877380D01*
X90852619Y-98877380D02*
X90852619Y-98210714D01*
X90852619Y-97877380D02*
X90805000Y-97925000D01*
X90852619Y-97972619D01*
X90900238Y-97925000D01*
X90852619Y-97877380D01*
X90852619Y-97972619D01*
X91328809Y-98210714D02*
X91328809Y-98877380D01*
X91328809Y-98305952D02*
X91376428Y-98258333D01*
X91471666Y-98210714D01*
X91614523Y-98210714D01*
X91709761Y-98258333D01*
X91757380Y-98353571D01*
X91757380Y-98877380D01*
X115169957Y-71969761D02*
X115306862Y-72017380D01*
X115544957Y-72017380D01*
X115646148Y-71969761D01*
X115699719Y-71922142D01*
X115759243Y-71826904D01*
X115771148Y-71731666D01*
X115735433Y-71636428D01*
X115693767Y-71588809D01*
X115604481Y-71541190D01*
X115419957Y-71493571D01*
X115330672Y-71445952D01*
X115289005Y-71398333D01*
X115253291Y-71303095D01*
X115265195Y-71207857D01*
X115324719Y-71112619D01*
X115378291Y-71065000D01*
X115479481Y-71017380D01*
X115717576Y-71017380D01*
X115854481Y-71065000D01*
X116592576Y-72017380D02*
X116658052Y-71493571D01*
X116622338Y-71398333D01*
X116533052Y-71350714D01*
X116342576Y-71350714D01*
X116241386Y-71398333D01*
X116598529Y-71969761D02*
X116497338Y-72017380D01*
X116259243Y-72017380D01*
X116169957Y-71969761D01*
X116134243Y-71874523D01*
X116146148Y-71779285D01*
X116205672Y-71684047D01*
X116306862Y-71636428D01*
X116544957Y-71636428D01*
X116646148Y-71588809D01*
X117211624Y-72017380D02*
X117122338Y-71969761D01*
X117086624Y-71874523D01*
X117193767Y-71017380D01*
X118021148Y-72017380D02*
X118086624Y-71493571D01*
X118050910Y-71398333D01*
X117961624Y-71350714D01*
X117771148Y-71350714D01*
X117669957Y-71398333D01*
X118027100Y-71969761D02*
X117925910Y-72017380D01*
X117687814Y-72017380D01*
X117598529Y-71969761D01*
X117562814Y-71874523D01*
X117574719Y-71779285D01*
X117634243Y-71684047D01*
X117735433Y-71636428D01*
X117973529Y-71636428D01*
X118074719Y-71588809D01*
X118497338Y-72017380D02*
X118580672Y-71350714D01*
X118568767Y-71445952D02*
X118622338Y-71398333D01*
X118723529Y-71350714D01*
X118866386Y-71350714D01*
X118955672Y-71398333D01*
X118991386Y-71493571D01*
X118925910Y-72017380D01*
X118991386Y-71493571D02*
X119050910Y-71398333D01*
X119152100Y-71350714D01*
X119294957Y-71350714D01*
X119384243Y-71398333D01*
X119419957Y-71493571D01*
X119354481Y-72017380D01*
X120259243Y-72017380D02*
X120324719Y-71493571D01*
X120289005Y-71398333D01*
X120199719Y-71350714D01*
X120009243Y-71350714D01*
X119908052Y-71398333D01*
X120265195Y-71969761D02*
X120164005Y-72017380D01*
X119925910Y-72017380D01*
X119836624Y-71969761D01*
X119800910Y-71874523D01*
X119812814Y-71779285D01*
X119872338Y-71684047D01*
X119973529Y-71636428D01*
X120211624Y-71636428D01*
X120312814Y-71588809D01*
X120818767Y-71350714D02*
X120735433Y-72017380D01*
X120806862Y-71445952D02*
X120860433Y-71398333D01*
X120961624Y-71350714D01*
X121104481Y-71350714D01*
X121193767Y-71398333D01*
X121229481Y-71493571D01*
X121164005Y-72017380D01*
X115056862Y-73572142D02*
X115003291Y-73619761D01*
X114854481Y-73667380D01*
X114759243Y-73667380D01*
X114622338Y-73619761D01*
X114539005Y-73524523D01*
X114503291Y-73429285D01*
X114479481Y-73238809D01*
X114497338Y-73095952D01*
X114568767Y-72905476D01*
X114628291Y-72810238D01*
X114735433Y-72715000D01*
X114884243Y-72667380D01*
X114979481Y-72667380D01*
X115116386Y-72715000D01*
X115158052Y-72762619D01*
X115616386Y-73667380D02*
X115527100Y-73619761D01*
X115485433Y-73572142D01*
X115449719Y-73476904D01*
X115485433Y-73191190D01*
X115544957Y-73095952D01*
X115598529Y-73048333D01*
X115699719Y-73000714D01*
X115842576Y-73000714D01*
X115931862Y-73048333D01*
X115973529Y-73095952D01*
X116009243Y-73191190D01*
X115973529Y-73476904D01*
X115914005Y-73572142D01*
X115860433Y-73619761D01*
X115759243Y-73667380D01*
X115616386Y-73667380D01*
X116378291Y-73667380D02*
X116461624Y-73000714D01*
X116449719Y-73095952D02*
X116503291Y-73048333D01*
X116604481Y-73000714D01*
X116747338Y-73000714D01*
X116836624Y-73048333D01*
X116872338Y-73143571D01*
X116806862Y-73667380D01*
X116872338Y-73143571D02*
X116931862Y-73048333D01*
X117033052Y-73000714D01*
X117175910Y-73000714D01*
X117265195Y-73048333D01*
X117300910Y-73143571D01*
X117235433Y-73667380D01*
X117794957Y-73000714D02*
X117669957Y-74000714D01*
X117789005Y-73048333D02*
X117890195Y-73000714D01*
X118080672Y-73000714D01*
X118169957Y-73048333D01*
X118211624Y-73095952D01*
X118247338Y-73191190D01*
X118211624Y-73476904D01*
X118152100Y-73572142D01*
X118098529Y-73619761D01*
X117997338Y-73667380D01*
X117806862Y-73667380D01*
X117717576Y-73619761D01*
X119128291Y-73000714D02*
X119044957Y-73667380D01*
X118699719Y-73000714D02*
X118634243Y-73524523D01*
X118669957Y-73619761D01*
X118759243Y-73667380D01*
X118902100Y-73667380D01*
X119003291Y-73619761D01*
X119056862Y-73572142D01*
X119461624Y-73000714D02*
X119842576Y-73000714D01*
X119646148Y-72667380D02*
X119539005Y-73524523D01*
X119574719Y-73619761D01*
X119664005Y-73667380D01*
X119759243Y-73667380D01*
X120092576Y-73667380D02*
X120175910Y-73000714D01*
X120217576Y-72667380D02*
X120164005Y-72715000D01*
X120205672Y-72762619D01*
X120259243Y-72715000D01*
X120217576Y-72667380D01*
X120205672Y-72762619D01*
X120652100Y-73000714D02*
X120568767Y-73667380D01*
X120640195Y-73095952D02*
X120693767Y-73048333D01*
X120794957Y-73000714D01*
X120937814Y-73000714D01*
X121027100Y-73048333D01*
X121062814Y-73143571D01*
X120997338Y-73667380D01*
X121985433Y-73000714D02*
X121884243Y-73810238D01*
X121824719Y-73905476D01*
X121771148Y-73953095D01*
X121669957Y-74000714D01*
X121527100Y-74000714D01*
X121437814Y-73953095D01*
X121908052Y-73619761D02*
X121806862Y-73667380D01*
X121616386Y-73667380D01*
X121527100Y-73619761D01*
X121485433Y-73572142D01*
X121449719Y-73476904D01*
X121485433Y-73191190D01*
X121544957Y-73095952D01*
X121598529Y-73048333D01*
X121699719Y-73000714D01*
X121890195Y-73000714D01*
X121979481Y-73048333D01*
D12*
G36*
X121492326Y-66284902D02*
G01*
X121460328Y-66373729D01*
X121395066Y-66446400D01*
X121345433Y-66528512D01*
X121437399Y-66548000D01*
X121560541Y-66588968D01*
X121581333Y-66632667D01*
X121510420Y-66701457D01*
X121412000Y-66717334D01*
X121274419Y-66752790D01*
X121242666Y-66802000D01*
X121313355Y-66871472D01*
X121407003Y-66886667D01*
X121573157Y-66931526D01*
X121631253Y-66983609D01*
X121622950Y-67046734D01*
X121468694Y-67038022D01*
X121466916Y-67037683D01*
X121300412Y-67030436D01*
X121244537Y-67114242D01*
X121242666Y-67152408D01*
X121226769Y-67277571D01*
X121155147Y-67294123D01*
X120991903Y-67204754D01*
X120945519Y-67174681D01*
X120652447Y-67057058D01*
X120332391Y-67040134D01*
X120054489Y-67123571D01*
X119976585Y-67179454D01*
X119819553Y-67374962D01*
X119812273Y-67522540D01*
X119938567Y-67608028D01*
X120182257Y-67617270D01*
X120421422Y-67568735D01*
X120749393Y-67512125D01*
X121011165Y-67556467D01*
X121014402Y-67557690D01*
X121236166Y-67683496D01*
X121450814Y-67869318D01*
X121610025Y-68066393D01*
X121666000Y-68215258D01*
X121594878Y-68306870D01*
X121414629Y-68431229D01*
X121174929Y-68562295D01*
X120925451Y-68674028D01*
X120715870Y-68740389D01*
X120648746Y-68748506D01*
X120496743Y-68710893D01*
X120274883Y-68616092D01*
X120204553Y-68580000D01*
X119896187Y-68446553D01*
X119701964Y-68427809D01*
X119631482Y-68513722D01*
X119694337Y-68694247D01*
X119871861Y-68928209D01*
X120062519Y-69102519D01*
X120280196Y-69195382D01*
X120549195Y-69236650D01*
X120795835Y-69273170D01*
X120955286Y-69321392D01*
X120988666Y-69352772D01*
X120919933Y-69418378D01*
X120861666Y-69426667D01*
X120742646Y-69457867D01*
X120755779Y-69528904D01*
X120880757Y-69605930D01*
X120988666Y-69638334D01*
X121191923Y-69709153D01*
X121238630Y-69777832D01*
X121139618Y-69816589D01*
X120925166Y-69801234D01*
X120728911Y-69774253D01*
X120671408Y-69795215D01*
X120713500Y-69856664D01*
X120806003Y-70018811D01*
X120819333Y-70093359D01*
X120784312Y-70147091D01*
X120668381Y-70074044D01*
X120606545Y-70018280D01*
X120441747Y-69891394D01*
X120330977Y-69889161D01*
X120293278Y-69918855D01*
X120151001Y-70013252D01*
X120074287Y-69973654D01*
X120080140Y-69856594D01*
X120043223Y-69674810D01*
X119859141Y-69453236D01*
X119541069Y-69206528D01*
X119433295Y-69137117D01*
X119241994Y-68957232D01*
X119082975Y-68708144D01*
X119062175Y-68659990D01*
X118972279Y-68471992D01*
X118852218Y-68346095D01*
X118653445Y-68244494D01*
X118420939Y-68160628D01*
X117720703Y-68008056D01*
X117026011Y-68023516D01*
X116609782Y-68115114D01*
X116372477Y-68202376D01*
X116144354Y-68312955D01*
X115958905Y-68425605D01*
X115849621Y-68519076D01*
X115849994Y-68572121D01*
X115881452Y-68577183D01*
X116035924Y-68646705D01*
X116182164Y-68797561D01*
X116247332Y-68954562D01*
X116247333Y-68954873D01*
X116198939Y-69077639D01*
X116074023Y-69280746D01*
X115950957Y-69451802D01*
X115778549Y-69709296D01*
X115736845Y-69860011D01*
X115826088Y-69905126D01*
X116034073Y-69850606D01*
X116228369Y-69781741D01*
X116301819Y-69782173D01*
X116290721Y-69858112D01*
X116277951Y-69892334D01*
X116282809Y-69978269D01*
X116406751Y-70014830D01*
X116539605Y-70019334D01*
X116742483Y-70047703D01*
X116794919Y-70109461D01*
X116701369Y-70169578D01*
X116517503Y-70193108D01*
X116289666Y-70197549D01*
X116480166Y-70330435D01*
X116639050Y-70469908D01*
X116656692Y-70547706D01*
X116542880Y-70540004D01*
X116416666Y-70485000D01*
X116245149Y-70404077D01*
X116175888Y-70413284D01*
X116162685Y-70521296D01*
X116162666Y-70532686D01*
X116154476Y-70639822D01*
X116105482Y-70649732D01*
X115979049Y-70556767D01*
X115902170Y-70492526D01*
X115659952Y-70342185D01*
X115419679Y-70273995D01*
X115399167Y-70273334D01*
X115176823Y-70238698D01*
X115102857Y-70129275D01*
X115173999Y-69936784D01*
X115231744Y-69849422D01*
X115412197Y-69596000D01*
X115237098Y-69596000D01*
X115015600Y-69669972D01*
X114788918Y-69896682D01*
X114550180Y-70283325D01*
X114514565Y-70352279D01*
X114153876Y-70907550D01*
X113709130Y-71315933D01*
X113180633Y-71577219D01*
X112568690Y-71691197D01*
X112564333Y-71691462D01*
X112197615Y-71691948D01*
X111908847Y-71631390D01*
X111698272Y-71540009D01*
X111304719Y-71274280D01*
X110989247Y-70933145D01*
X110773087Y-70552001D01*
X110677471Y-70166243D01*
X110701838Y-69878837D01*
X110743310Y-69742278D01*
X110776971Y-69726938D01*
X110821574Y-69848703D01*
X110868226Y-70019815D01*
X111007375Y-70452578D01*
X111174455Y-70758558D01*
X111401954Y-70980243D01*
X111722360Y-71160123D01*
X111749579Y-71172458D01*
X112144044Y-71258397D01*
X112578053Y-71186618D01*
X113026993Y-70965641D01*
X113270991Y-70766643D01*
X113483771Y-70490183D01*
X113672047Y-70150816D01*
X113807157Y-69857077D01*
X113897402Y-69613423D01*
X113926575Y-69464921D01*
X113923766Y-69450891D01*
X113935602Y-69308597D01*
X114021360Y-69108981D01*
X114035851Y-69084334D01*
X114129938Y-68888677D01*
X114146701Y-68692450D01*
X114104143Y-68450758D01*
X114042477Y-68226026D01*
X113985472Y-68090270D01*
X113965323Y-68072000D01*
X113893416Y-68137952D01*
X113781449Y-68301122D01*
X113754094Y-68347167D01*
X113525013Y-68707523D01*
X113307101Y-68985379D01*
X113120950Y-69158013D01*
X112987153Y-69202699D01*
X112980693Y-69200609D01*
X112855535Y-69095585D01*
X112728958Y-68909527D01*
X112726480Y-68904769D01*
X112564234Y-68697873D01*
X112369778Y-68563037D01*
X112228147Y-68492462D01*
X112236676Y-68449660D01*
X112289166Y-68433466D01*
X112415494Y-68378869D01*
X112408560Y-68283384D01*
X112296741Y-68141648D01*
X112212297Y-68002452D01*
X112218997Y-67923448D01*
X112309977Y-67930870D01*
X112390089Y-68008633D01*
X112518462Y-68140339D01*
X112586234Y-68121797D01*
X112575315Y-67958780D01*
X112573201Y-67950189D01*
X112563652Y-67775153D01*
X112606355Y-67691192D01*
X112666672Y-67723987D01*
X112691297Y-67889304D01*
X112691333Y-67897670D01*
X112716775Y-68100514D01*
X112799418Y-68146733D01*
X112939596Y-68050834D01*
X113010993Y-68005895D01*
X113022767Y-68083171D01*
X113001635Y-68216884D01*
X112976197Y-68443676D01*
X113008856Y-68520073D01*
X113092825Y-68452085D01*
X113221316Y-68245726D01*
X113387540Y-67907008D01*
X113411388Y-67853967D01*
X113657625Y-67362549D01*
X113885514Y-67037801D01*
X114097727Y-66878372D01*
X114296936Y-66882906D01*
X114485815Y-67050053D01*
X114606224Y-67249010D01*
X114705458Y-67437839D01*
X114769671Y-67548574D01*
X114774702Y-67555213D01*
X114847062Y-67520962D01*
X115004520Y-67397961D01*
X115171443Y-67250556D01*
X115467681Y-67004369D01*
X115803853Y-66762725D01*
X115956342Y-66666676D01*
X116157291Y-66555647D01*
X116335947Y-66484231D01*
X116538558Y-66443765D01*
X116811375Y-66425589D01*
X117200648Y-66421042D01*
X117268243Y-66421000D01*
X117677524Y-66424213D01*
X117970450Y-66440935D01*
X118199972Y-66481789D01*
X118419044Y-66557399D01*
X118680619Y-66678389D01*
X118769291Y-66722143D01*
X119082421Y-66871150D01*
X119283240Y-66946198D01*
X119407028Y-66956332D01*
X119489067Y-66910598D01*
X119492227Y-66907487D01*
X119628419Y-66834903D01*
X119880116Y-66750953D01*
X120195858Y-66672483D01*
X120234847Y-66664389D01*
X120594330Y-66577930D01*
X120933752Y-66473736D01*
X121179166Y-66374571D01*
X121394438Y-66283796D01*
X121492326Y-66284902D01*
X121492326Y-66284902D01*
G37*
X121492326Y-66284902D02*
X121460328Y-66373729D01*
X121395066Y-66446400D01*
X121345433Y-66528512D01*
X121437399Y-66548000D01*
X121560541Y-66588968D01*
X121581333Y-66632667D01*
X121510420Y-66701457D01*
X121412000Y-66717334D01*
X121274419Y-66752790D01*
X121242666Y-66802000D01*
X121313355Y-66871472D01*
X121407003Y-66886667D01*
X121573157Y-66931526D01*
X121631253Y-66983609D01*
X121622950Y-67046734D01*
X121468694Y-67038022D01*
X121466916Y-67037683D01*
X121300412Y-67030436D01*
X121244537Y-67114242D01*
X121242666Y-67152408D01*
X121226769Y-67277571D01*
X121155147Y-67294123D01*
X120991903Y-67204754D01*
X120945519Y-67174681D01*
X120652447Y-67057058D01*
X120332391Y-67040134D01*
X120054489Y-67123571D01*
X119976585Y-67179454D01*
X119819553Y-67374962D01*
X119812273Y-67522540D01*
X119938567Y-67608028D01*
X120182257Y-67617270D01*
X120421422Y-67568735D01*
X120749393Y-67512125D01*
X121011165Y-67556467D01*
X121014402Y-67557690D01*
X121236166Y-67683496D01*
X121450814Y-67869318D01*
X121610025Y-68066393D01*
X121666000Y-68215258D01*
X121594878Y-68306870D01*
X121414629Y-68431229D01*
X121174929Y-68562295D01*
X120925451Y-68674028D01*
X120715870Y-68740389D01*
X120648746Y-68748506D01*
X120496743Y-68710893D01*
X120274883Y-68616092D01*
X120204553Y-68580000D01*
X119896187Y-68446553D01*
X119701964Y-68427809D01*
X119631482Y-68513722D01*
X119694337Y-68694247D01*
X119871861Y-68928209D01*
X120062519Y-69102519D01*
X120280196Y-69195382D01*
X120549195Y-69236650D01*
X120795835Y-69273170D01*
X120955286Y-69321392D01*
X120988666Y-69352772D01*
X120919933Y-69418378D01*
X120861666Y-69426667D01*
X120742646Y-69457867D01*
X120755779Y-69528904D01*
X120880757Y-69605930D01*
X120988666Y-69638334D01*
X121191923Y-69709153D01*
X121238630Y-69777832D01*
X121139618Y-69816589D01*
X120925166Y-69801234D01*
X120728911Y-69774253D01*
X120671408Y-69795215D01*
X120713500Y-69856664D01*
X120806003Y-70018811D01*
X120819333Y-70093359D01*
X120784312Y-70147091D01*
X120668381Y-70074044D01*
X120606545Y-70018280D01*
X120441747Y-69891394D01*
X120330977Y-69889161D01*
X120293278Y-69918855D01*
X120151001Y-70013252D01*
X120074287Y-69973654D01*
X120080140Y-69856594D01*
X120043223Y-69674810D01*
X119859141Y-69453236D01*
X119541069Y-69206528D01*
X119433295Y-69137117D01*
X119241994Y-68957232D01*
X119082975Y-68708144D01*
X119062175Y-68659990D01*
X118972279Y-68471992D01*
X118852218Y-68346095D01*
X118653445Y-68244494D01*
X118420939Y-68160628D01*
X117720703Y-68008056D01*
X117026011Y-68023516D01*
X116609782Y-68115114D01*
X116372477Y-68202376D01*
X116144354Y-68312955D01*
X115958905Y-68425605D01*
X115849621Y-68519076D01*
X115849994Y-68572121D01*
X115881452Y-68577183D01*
X116035924Y-68646705D01*
X116182164Y-68797561D01*
X116247332Y-68954562D01*
X116247333Y-68954873D01*
X116198939Y-69077639D01*
X116074023Y-69280746D01*
X115950957Y-69451802D01*
X115778549Y-69709296D01*
X115736845Y-69860011D01*
X115826088Y-69905126D01*
X116034073Y-69850606D01*
X116228369Y-69781741D01*
X116301819Y-69782173D01*
X116290721Y-69858112D01*
X116277951Y-69892334D01*
X116282809Y-69978269D01*
X116406751Y-70014830D01*
X116539605Y-70019334D01*
X116742483Y-70047703D01*
X116794919Y-70109461D01*
X116701369Y-70169578D01*
X116517503Y-70193108D01*
X116289666Y-70197549D01*
X116480166Y-70330435D01*
X116639050Y-70469908D01*
X116656692Y-70547706D01*
X116542880Y-70540004D01*
X116416666Y-70485000D01*
X116245149Y-70404077D01*
X116175888Y-70413284D01*
X116162685Y-70521296D01*
X116162666Y-70532686D01*
X116154476Y-70639822D01*
X116105482Y-70649732D01*
X115979049Y-70556767D01*
X115902170Y-70492526D01*
X115659952Y-70342185D01*
X115419679Y-70273995D01*
X115399167Y-70273334D01*
X115176823Y-70238698D01*
X115102857Y-70129275D01*
X115173999Y-69936784D01*
X115231744Y-69849422D01*
X115412197Y-69596000D01*
X115237098Y-69596000D01*
X115015600Y-69669972D01*
X114788918Y-69896682D01*
X114550180Y-70283325D01*
X114514565Y-70352279D01*
X114153876Y-70907550D01*
X113709130Y-71315933D01*
X113180633Y-71577219D01*
X112568690Y-71691197D01*
X112564333Y-71691462D01*
X112197615Y-71691948D01*
X111908847Y-71631390D01*
X111698272Y-71540009D01*
X111304719Y-71274280D01*
X110989247Y-70933145D01*
X110773087Y-70552001D01*
X110677471Y-70166243D01*
X110701838Y-69878837D01*
X110743310Y-69742278D01*
X110776971Y-69726938D01*
X110821574Y-69848703D01*
X110868226Y-70019815D01*
X111007375Y-70452578D01*
X111174455Y-70758558D01*
X111401954Y-70980243D01*
X111722360Y-71160123D01*
X111749579Y-71172458D01*
X112144044Y-71258397D01*
X112578053Y-71186618D01*
X113026993Y-70965641D01*
X113270991Y-70766643D01*
X113483771Y-70490183D01*
X113672047Y-70150816D01*
X113807157Y-69857077D01*
X113897402Y-69613423D01*
X113926575Y-69464921D01*
X113923766Y-69450891D01*
X113935602Y-69308597D01*
X114021360Y-69108981D01*
X114035851Y-69084334D01*
X114129938Y-68888677D01*
X114146701Y-68692450D01*
X114104143Y-68450758D01*
X114042477Y-68226026D01*
X113985472Y-68090270D01*
X113965323Y-68072000D01*
X113893416Y-68137952D01*
X113781449Y-68301122D01*
X113754094Y-68347167D01*
X113525013Y-68707523D01*
X113307101Y-68985379D01*
X113120950Y-69158013D01*
X112987153Y-69202699D01*
X112980693Y-69200609D01*
X112855535Y-69095585D01*
X112728958Y-68909527D01*
X112726480Y-68904769D01*
X112564234Y-68697873D01*
X112369778Y-68563037D01*
X112228147Y-68492462D01*
X112236676Y-68449660D01*
X112289166Y-68433466D01*
X112415494Y-68378869D01*
X112408560Y-68283384D01*
X112296741Y-68141648D01*
X112212297Y-68002452D01*
X112218997Y-67923448D01*
X112309977Y-67930870D01*
X112390089Y-68008633D01*
X112518462Y-68140339D01*
X112586234Y-68121797D01*
X112575315Y-67958780D01*
X112573201Y-67950189D01*
X112563652Y-67775153D01*
X112606355Y-67691192D01*
X112666672Y-67723987D01*
X112691297Y-67889304D01*
X112691333Y-67897670D01*
X112716775Y-68100514D01*
X112799418Y-68146733D01*
X112939596Y-68050834D01*
X113010993Y-68005895D01*
X113022767Y-68083171D01*
X113001635Y-68216884D01*
X112976197Y-68443676D01*
X113008856Y-68520073D01*
X113092825Y-68452085D01*
X113221316Y-68245726D01*
X113387540Y-67907008D01*
X113411388Y-67853967D01*
X113657625Y-67362549D01*
X113885514Y-67037801D01*
X114097727Y-66878372D01*
X114296936Y-66882906D01*
X114485815Y-67050053D01*
X114606224Y-67249010D01*
X114705458Y-67437839D01*
X114769671Y-67548574D01*
X114774702Y-67555213D01*
X114847062Y-67520962D01*
X115004520Y-67397961D01*
X115171443Y-67250556D01*
X115467681Y-67004369D01*
X115803853Y-66762725D01*
X115956342Y-66666676D01*
X116157291Y-66555647D01*
X116335947Y-66484231D01*
X116538558Y-66443765D01*
X116811375Y-66425589D01*
X117200648Y-66421042D01*
X117268243Y-66421000D01*
X117677524Y-66424213D01*
X117970450Y-66440935D01*
X118199972Y-66481789D01*
X118419044Y-66557399D01*
X118680619Y-66678389D01*
X118769291Y-66722143D01*
X119082421Y-66871150D01*
X119283240Y-66946198D01*
X119407028Y-66956332D01*
X119489067Y-66910598D01*
X119492227Y-66907487D01*
X119628419Y-66834903D01*
X119880116Y-66750953D01*
X120195858Y-66672483D01*
X120234847Y-66664389D01*
X120594330Y-66577930D01*
X120933752Y-66473736D01*
X121179166Y-66374571D01*
X121394438Y-66283796D01*
X121492326Y-66284902D01*
D11*
X89600821Y-84228400D02*
X89926379Y-84228400D01*
X89600821Y-83208400D02*
X89926379Y-83208400D01*
X108726000Y-95457000D02*
X108726000Y-99667000D01*
X111746000Y-95457000D02*
X108726000Y-95457000D01*
X111746000Y-99667000D02*
X111746000Y-95457000D01*
X106788000Y-95341000D02*
X106788000Y-101351000D01*
X99968000Y-97591000D02*
X99968000Y-101351000D01*
X106788000Y-101351000D02*
X105528000Y-101351000D01*
X99968000Y-101351000D02*
X101228000Y-101351000D01*
X94140800Y-71034600D02*
X92490800Y-71034600D01*
X94140800Y-81314600D02*
X94140800Y-71034600D01*
X88840800Y-81314600D02*
X94140800Y-81314600D01*
X88840800Y-71034600D02*
X88840800Y-81314600D01*
X90490800Y-71034600D02*
X88840800Y-71034600D01*
X92490800Y-71034600D02*
G75*
G02X90490800Y-71034600I-1000000J0D01*
G01*
X145458200Y-79964000D02*
X142738200Y-79964000D01*
X135878200Y-79964000D02*
X133158200Y-79964000D01*
X137738200Y-67664000D02*
X140878200Y-67664000D01*
X133158200Y-67664000D02*
X135878200Y-67664000D01*
X143847250Y-73914000D02*
G75*
G03X143847250Y-73914000I-4579050J0D01*
G01*
X142738200Y-67664000D02*
X145458200Y-67664000D01*
X133158200Y-79964000D02*
X133158200Y-67664000D01*
X140878200Y-79964000D02*
X137738200Y-79964000D01*
X145458200Y-67664000D02*
X145458200Y-79964000D01*
X125670000Y-97342000D02*
X125670000Y-96012000D01*
X127000000Y-97342000D02*
X125670000Y-97342000D01*
X128270000Y-97342000D02*
X128270000Y-94682000D01*
X128270000Y-94682000D02*
X133410000Y-94682000D01*
X128270000Y-97342000D02*
X133410000Y-97342000D01*
X133410000Y-97342000D02*
X133410000Y-94682000D01*
X105096000Y-72076000D02*
X106426000Y-72076000D01*
X105096000Y-73406000D02*
X105096000Y-72076000D01*
X105096000Y-74676000D02*
X107756000Y-74676000D01*
X107756000Y-74676000D02*
X107756000Y-79816000D01*
X105096000Y-74676000D02*
X105096000Y-79816000D01*
X105096000Y-79816000D02*
X107756000Y-79816000D01*
X127277400Y-77510421D02*
X127277400Y-77835979D01*
X128297400Y-77510421D02*
X128297400Y-77835979D01*
X113224000Y-94428000D02*
X114554000Y-94428000D01*
X113224000Y-95758000D02*
X113224000Y-94428000D01*
X113224000Y-97028000D02*
X115884000Y-97028000D01*
X115884000Y-97028000D02*
X115884000Y-102168000D01*
X113224000Y-97028000D02*
X113224000Y-102168000D01*
X113224000Y-102168000D02*
X115884000Y-102168000D01*
X98104000Y-101032000D02*
X98104000Y-102362000D01*
X96774000Y-101032000D02*
X98104000Y-101032000D01*
X95504000Y-101032000D02*
X95504000Y-103692000D01*
X95504000Y-103692000D02*
X92904000Y-103692000D01*
X95504000Y-101032000D02*
X92904000Y-101032000D01*
X92904000Y-101032000D02*
X92904000Y-103692000D01*
X141672000Y-94682000D02*
X143002000Y-94682000D01*
X141672000Y-96012000D02*
X141672000Y-94682000D01*
X141672000Y-97282000D02*
X144332000Y-97282000D01*
X144332000Y-97282000D02*
X144332000Y-102422000D01*
X141672000Y-97282000D02*
X141672000Y-102422000D01*
X141672000Y-102422000D02*
X144332000Y-102422000D01*
X86554000Y-94428000D02*
X87884000Y-94428000D01*
X86554000Y-95758000D02*
X86554000Y-94428000D01*
X86554000Y-97028000D02*
X89214000Y-97028000D01*
X89214000Y-97028000D02*
X89214000Y-102168000D01*
X86554000Y-97028000D02*
X86554000Y-102168000D01*
X86554000Y-102168000D02*
X89214000Y-102168000D01*
X144990000Y-85250000D02*
X143840000Y-85250000D01*
X144990000Y-92550000D02*
X144990000Y-85250000D01*
X139490000Y-92550000D02*
X139490000Y-85250000D01*
X137370000Y-85250000D02*
X136220000Y-85250000D01*
X137370000Y-92550000D02*
X137370000Y-85250000D01*
X131870000Y-92550000D02*
X131870000Y-85250000D01*
X129750000Y-85250000D02*
X128600000Y-85250000D01*
X129750000Y-92550000D02*
X129750000Y-85250000D01*
X124250000Y-92550000D02*
X124250000Y-85250000D01*
X122130000Y-85250000D02*
X120980000Y-85250000D01*
X122130000Y-92550000D02*
X122130000Y-85250000D01*
X116630000Y-92550000D02*
X116630000Y-85250000D01*
X114510000Y-85250000D02*
X113360000Y-85250000D01*
X114510000Y-92550000D02*
X114510000Y-85250000D01*
X109010000Y-92550000D02*
X109010000Y-85250000D01*
X106890000Y-85250000D02*
X105740000Y-85250000D01*
X106890000Y-92550000D02*
X106890000Y-85250000D01*
X101390000Y-92550000D02*
X101390000Y-85250000D01*
X99270000Y-85250000D02*
X98120000Y-85250000D01*
X99270000Y-92550000D02*
X99270000Y-85250000D01*
X93770000Y-92550000D02*
X93770000Y-85250000D01*
X91650000Y-85250000D02*
X90500000Y-85250000D01*
X91650000Y-92550000D02*
X91650000Y-85250000D01*
X86150000Y-92550000D02*
X86150000Y-85250000D01*
X142915421Y-84330000D02*
X143240979Y-84330000D01*
X142915421Y-83310000D02*
X143240979Y-83310000D01*
X135270021Y-84304600D02*
X135595579Y-84304600D01*
X135270021Y-83284600D02*
X135595579Y-83284600D01*
X127650021Y-84304600D02*
X127975579Y-84304600D01*
X127650021Y-83284600D02*
X127975579Y-83284600D01*
X120055421Y-84253800D02*
X120380979Y-84253800D01*
X120055421Y-83233800D02*
X120380979Y-83233800D01*
X112460821Y-84253800D02*
X112786379Y-84253800D01*
X112460821Y-83233800D02*
X112786379Y-83233800D01*
X104790021Y-84253800D02*
X105115579Y-84253800D01*
X104790021Y-83233800D02*
X105115579Y-83233800D01*
X97195421Y-84228400D02*
X97520979Y-84228400D01*
X97195421Y-83208400D02*
X97520979Y-83208400D01*
D10*
X89596933Y-82645542D02*
X89549314Y-82693161D01*
X89406457Y-82740780D01*
X89311219Y-82740780D01*
X89168361Y-82693161D01*
X89073123Y-82597923D01*
X89025504Y-82502685D01*
X88977885Y-82312209D01*
X88977885Y-82169352D01*
X89025504Y-81978876D01*
X89073123Y-81883638D01*
X89168361Y-81788400D01*
X89311219Y-81740780D01*
X89406457Y-81740780D01*
X89549314Y-81788400D01*
X89596933Y-81836019D01*
X90549314Y-82740780D02*
X89977885Y-82740780D01*
X90263600Y-82740780D02*
X90263600Y-81740780D01*
X90168361Y-81883638D01*
X90073123Y-81978876D01*
X89977885Y-82026495D01*
X109942333Y-101576142D02*
X109894714Y-101623761D01*
X109751857Y-101671380D01*
X109656619Y-101671380D01*
X109513761Y-101623761D01*
X109418523Y-101528523D01*
X109370904Y-101433285D01*
X109323285Y-101242809D01*
X109323285Y-101099952D01*
X109370904Y-100909476D01*
X109418523Y-100814238D01*
X109513761Y-100719000D01*
X109656619Y-100671380D01*
X109751857Y-100671380D01*
X109894714Y-100719000D01*
X109942333Y-100766619D01*
X110418523Y-101671380D02*
X110609000Y-101671380D01*
X110704238Y-101623761D01*
X110751857Y-101576142D01*
X110847095Y-101433285D01*
X110894714Y-101242809D01*
X110894714Y-100861857D01*
X110847095Y-100766619D01*
X110799476Y-100719000D01*
X110704238Y-100671380D01*
X110513761Y-100671380D01*
X110418523Y-100719000D01*
X110370904Y-100766619D01*
X110323285Y-100861857D01*
X110323285Y-101099952D01*
X110370904Y-101195190D01*
X110418523Y-101242809D01*
X110513761Y-101290428D01*
X110704238Y-101290428D01*
X110799476Y-101242809D01*
X110847095Y-101195190D01*
X110894714Y-101099952D01*
X90728895Y-69486980D02*
X90728895Y-70296504D01*
X90776514Y-70391742D01*
X90824133Y-70439361D01*
X90919371Y-70486980D01*
X91109847Y-70486980D01*
X91205085Y-70439361D01*
X91252704Y-70391742D01*
X91300323Y-70296504D01*
X91300323Y-69486980D01*
X92300323Y-70486980D02*
X91728895Y-70486980D01*
X92014609Y-70486980D02*
X92014609Y-69486980D01*
X91919371Y-69629838D01*
X91824133Y-69725076D01*
X91728895Y-69772695D01*
X125074761Y-97345333D02*
X125122380Y-97202476D01*
X125122380Y-96964380D01*
X125074761Y-96869142D01*
X125027142Y-96821523D01*
X124931904Y-96773904D01*
X124836666Y-96773904D01*
X124741428Y-96821523D01*
X124693809Y-96869142D01*
X124646190Y-96964380D01*
X124598571Y-97154857D01*
X124550952Y-97250095D01*
X124503333Y-97297714D01*
X124408095Y-97345333D01*
X124312857Y-97345333D01*
X124217619Y-97297714D01*
X124170000Y-97250095D01*
X124122380Y-97154857D01*
X124122380Y-96916761D01*
X124170000Y-96773904D01*
X124122380Y-96440571D02*
X125122380Y-96202476D01*
X124408095Y-96012000D01*
X125122380Y-95821523D01*
X124122380Y-95583428D01*
X125122380Y-94678666D02*
X125122380Y-95250095D01*
X125122380Y-94964380D02*
X124122380Y-94964380D01*
X124265238Y-95059619D01*
X124360476Y-95154857D01*
X124408095Y-95250095D01*
X105830761Y-71528380D02*
X105497428Y-71052190D01*
X105259333Y-71528380D02*
X105259333Y-70528380D01*
X105640285Y-70528380D01*
X105735523Y-70576000D01*
X105783142Y-70623619D01*
X105830761Y-70718857D01*
X105830761Y-70861714D01*
X105783142Y-70956952D01*
X105735523Y-71004571D01*
X105640285Y-71052190D01*
X105259333Y-71052190D01*
X106116476Y-70528380D02*
X106449809Y-71528380D01*
X106783142Y-70528380D01*
X107640285Y-71528380D02*
X107068857Y-71528380D01*
X107354571Y-71528380D02*
X107354571Y-70528380D01*
X107259333Y-70671238D01*
X107164095Y-70766476D01*
X107068857Y-70814095D01*
X129669780Y-77839866D02*
X129193590Y-78173200D01*
X129669780Y-78411295D02*
X128669780Y-78411295D01*
X128669780Y-78030342D01*
X128717400Y-77935104D01*
X128765019Y-77887485D01*
X128860257Y-77839866D01*
X129003114Y-77839866D01*
X129098352Y-77887485D01*
X129145971Y-77935104D01*
X129193590Y-78030342D01*
X129193590Y-78411295D01*
X129669780Y-76887485D02*
X129669780Y-77458914D01*
X129669780Y-77173200D02*
X128669780Y-77173200D01*
X128812638Y-77268438D01*
X128907876Y-77363676D01*
X128955495Y-77458914D01*
X114220666Y-92880380D02*
X114220666Y-93594666D01*
X114173047Y-93737523D01*
X114077809Y-93832761D01*
X113934952Y-93880380D01*
X113839714Y-93880380D01*
X115125428Y-93213714D02*
X115125428Y-93880380D01*
X114887333Y-92832761D02*
X114649238Y-93547047D01*
X115268285Y-93547047D01*
X142668666Y-93134380D02*
X142668666Y-93848666D01*
X142621047Y-93991523D01*
X142525809Y-94086761D01*
X142382952Y-94134380D01*
X142287714Y-94134380D01*
X143097238Y-93229619D02*
X143144857Y-93182000D01*
X143240095Y-93134380D01*
X143478190Y-93134380D01*
X143573428Y-93182000D01*
X143621047Y-93229619D01*
X143668666Y-93324857D01*
X143668666Y-93420095D01*
X143621047Y-93562952D01*
X143049619Y-94134380D01*
X143668666Y-94134380D01*
X87550666Y-92880380D02*
X87550666Y-93594666D01*
X87503047Y-93737523D01*
X87407809Y-93832761D01*
X87264952Y-93880380D01*
X87169714Y-93880380D01*
X88550666Y-93880380D02*
X87979238Y-93880380D01*
X88264952Y-93880380D02*
X88264952Y-92880380D01*
X88169714Y-93023238D01*
X88074476Y-93118476D01*
X87979238Y-93166095D01*
X139192380Y-89638095D02*
X138192380Y-89638095D01*
X138192380Y-89400000D01*
X138240000Y-89257142D01*
X138335238Y-89161904D01*
X138430476Y-89114285D01*
X138620952Y-89066666D01*
X138763809Y-89066666D01*
X138954285Y-89114285D01*
X139049523Y-89161904D01*
X139144761Y-89257142D01*
X139192380Y-89400000D01*
X139192380Y-89638095D01*
X138620952Y-88495238D02*
X138573333Y-88590476D01*
X138525714Y-88638095D01*
X138430476Y-88685714D01*
X138382857Y-88685714D01*
X138287619Y-88638095D01*
X138240000Y-88590476D01*
X138192380Y-88495238D01*
X138192380Y-88304761D01*
X138240000Y-88209523D01*
X138287619Y-88161904D01*
X138382857Y-88114285D01*
X138430476Y-88114285D01*
X138525714Y-88161904D01*
X138573333Y-88209523D01*
X138620952Y-88304761D01*
X138620952Y-88495238D01*
X138668571Y-88590476D01*
X138716190Y-88638095D01*
X138811428Y-88685714D01*
X139001904Y-88685714D01*
X139097142Y-88638095D01*
X139144761Y-88590476D01*
X139192380Y-88495238D01*
X139192380Y-88304761D01*
X139144761Y-88209523D01*
X139097142Y-88161904D01*
X139001904Y-88114285D01*
X138811428Y-88114285D01*
X138716190Y-88161904D01*
X138668571Y-88209523D01*
X138620952Y-88304761D01*
X141092380Y-92764285D02*
X141092380Y-93335714D01*
X141092380Y-93050000D02*
X140092380Y-93050000D01*
X140235238Y-93145238D01*
X140330476Y-93240476D01*
X140378095Y-93335714D01*
X131572380Y-89638095D02*
X130572380Y-89638095D01*
X130572380Y-89400000D01*
X130620000Y-89257142D01*
X130715238Y-89161904D01*
X130810476Y-89114285D01*
X131000952Y-89066666D01*
X131143809Y-89066666D01*
X131334285Y-89114285D01*
X131429523Y-89161904D01*
X131524761Y-89257142D01*
X131572380Y-89400000D01*
X131572380Y-89638095D01*
X130572380Y-88733333D02*
X130572380Y-88066666D01*
X131572380Y-88495238D01*
X133472380Y-92764285D02*
X133472380Y-93335714D01*
X133472380Y-93050000D02*
X132472380Y-93050000D01*
X132615238Y-93145238D01*
X132710476Y-93240476D01*
X132758095Y-93335714D01*
X123952380Y-89638095D02*
X122952380Y-89638095D01*
X122952380Y-89400000D01*
X123000000Y-89257142D01*
X123095238Y-89161904D01*
X123190476Y-89114285D01*
X123380952Y-89066666D01*
X123523809Y-89066666D01*
X123714285Y-89114285D01*
X123809523Y-89161904D01*
X123904761Y-89257142D01*
X123952380Y-89400000D01*
X123952380Y-89638095D01*
X122952380Y-88209523D02*
X122952380Y-88400000D01*
X123000000Y-88495238D01*
X123047619Y-88542857D01*
X123190476Y-88638095D01*
X123380952Y-88685714D01*
X123761904Y-88685714D01*
X123857142Y-88638095D01*
X123904761Y-88590476D01*
X123952380Y-88495238D01*
X123952380Y-88304761D01*
X123904761Y-88209523D01*
X123857142Y-88161904D01*
X123761904Y-88114285D01*
X123523809Y-88114285D01*
X123428571Y-88161904D01*
X123380952Y-88209523D01*
X123333333Y-88304761D01*
X123333333Y-88495238D01*
X123380952Y-88590476D01*
X123428571Y-88638095D01*
X123523809Y-88685714D01*
X125852380Y-92764285D02*
X125852380Y-93335714D01*
X125852380Y-93050000D02*
X124852380Y-93050000D01*
X124995238Y-93145238D01*
X125090476Y-93240476D01*
X125138095Y-93335714D01*
X116332380Y-89638095D02*
X115332380Y-89638095D01*
X115332380Y-89400000D01*
X115380000Y-89257142D01*
X115475238Y-89161904D01*
X115570476Y-89114285D01*
X115760952Y-89066666D01*
X115903809Y-89066666D01*
X116094285Y-89114285D01*
X116189523Y-89161904D01*
X116284761Y-89257142D01*
X116332380Y-89400000D01*
X116332380Y-89638095D01*
X115332380Y-88161904D02*
X115332380Y-88638095D01*
X115808571Y-88685714D01*
X115760952Y-88638095D01*
X115713333Y-88542857D01*
X115713333Y-88304761D01*
X115760952Y-88209523D01*
X115808571Y-88161904D01*
X115903809Y-88114285D01*
X116141904Y-88114285D01*
X116237142Y-88161904D01*
X116284761Y-88209523D01*
X116332380Y-88304761D01*
X116332380Y-88542857D01*
X116284761Y-88638095D01*
X116237142Y-88685714D01*
X118232380Y-92764285D02*
X118232380Y-93335714D01*
X118232380Y-93050000D02*
X117232380Y-93050000D01*
X117375238Y-93145238D01*
X117470476Y-93240476D01*
X117518095Y-93335714D01*
X108712380Y-89638095D02*
X107712380Y-89638095D01*
X107712380Y-89400000D01*
X107760000Y-89257142D01*
X107855238Y-89161904D01*
X107950476Y-89114285D01*
X108140952Y-89066666D01*
X108283809Y-89066666D01*
X108474285Y-89114285D01*
X108569523Y-89161904D01*
X108664761Y-89257142D01*
X108712380Y-89400000D01*
X108712380Y-89638095D01*
X108045714Y-88209523D02*
X108712380Y-88209523D01*
X107664761Y-88447619D02*
X108379047Y-88685714D01*
X108379047Y-88066666D01*
X110612380Y-92764285D02*
X110612380Y-93335714D01*
X110612380Y-93050000D02*
X109612380Y-93050000D01*
X109755238Y-93145238D01*
X109850476Y-93240476D01*
X109898095Y-93335714D01*
X101092380Y-89638095D02*
X100092380Y-89638095D01*
X100092380Y-89400000D01*
X100140000Y-89257142D01*
X100235238Y-89161904D01*
X100330476Y-89114285D01*
X100520952Y-89066666D01*
X100663809Y-89066666D01*
X100854285Y-89114285D01*
X100949523Y-89161904D01*
X101044761Y-89257142D01*
X101092380Y-89400000D01*
X101092380Y-89638095D01*
X100092380Y-88733333D02*
X100092380Y-88114285D01*
X100473333Y-88447619D01*
X100473333Y-88304761D01*
X100520952Y-88209523D01*
X100568571Y-88161904D01*
X100663809Y-88114285D01*
X100901904Y-88114285D01*
X100997142Y-88161904D01*
X101044761Y-88209523D01*
X101092380Y-88304761D01*
X101092380Y-88590476D01*
X101044761Y-88685714D01*
X100997142Y-88733333D01*
X102992380Y-92764285D02*
X102992380Y-93335714D01*
X102992380Y-93050000D02*
X101992380Y-93050000D01*
X102135238Y-93145238D01*
X102230476Y-93240476D01*
X102278095Y-93335714D01*
X93472380Y-89638095D02*
X92472380Y-89638095D01*
X92472380Y-89400000D01*
X92520000Y-89257142D01*
X92615238Y-89161904D01*
X92710476Y-89114285D01*
X92900952Y-89066666D01*
X93043809Y-89066666D01*
X93234285Y-89114285D01*
X93329523Y-89161904D01*
X93424761Y-89257142D01*
X93472380Y-89400000D01*
X93472380Y-89638095D01*
X92567619Y-88685714D02*
X92520000Y-88638095D01*
X92472380Y-88542857D01*
X92472380Y-88304761D01*
X92520000Y-88209523D01*
X92567619Y-88161904D01*
X92662857Y-88114285D01*
X92758095Y-88114285D01*
X92900952Y-88161904D01*
X93472380Y-88733333D01*
X93472380Y-88114285D01*
X95372380Y-92764285D02*
X95372380Y-93335714D01*
X95372380Y-93050000D02*
X94372380Y-93050000D01*
X94515238Y-93145238D01*
X94610476Y-93240476D01*
X94658095Y-93335714D01*
X90320904Y-93797380D02*
X90320904Y-92797380D01*
X90559000Y-92797380D01*
X90701857Y-92845000D01*
X90797095Y-92940238D01*
X90844714Y-93035476D01*
X90892333Y-93225952D01*
X90892333Y-93368809D01*
X90844714Y-93559285D01*
X90797095Y-93654523D01*
X90701857Y-93749761D01*
X90559000Y-93797380D01*
X90320904Y-93797380D01*
X91844714Y-93797380D02*
X91273285Y-93797380D01*
X91559000Y-93797380D02*
X91559000Y-92797380D01*
X91463761Y-92940238D01*
X91368523Y-93035476D01*
X91273285Y-93083095D01*
X87752380Y-92764285D02*
X87752380Y-93335714D01*
X87752380Y-93050000D02*
X86752380Y-93050000D01*
X86895238Y-93145238D01*
X86990476Y-93240476D01*
X87038095Y-93335714D01*
X142911533Y-82747142D02*
X142863914Y-82794761D01*
X142721057Y-82842380D01*
X142625819Y-82842380D01*
X142482961Y-82794761D01*
X142387723Y-82699523D01*
X142340104Y-82604285D01*
X142292485Y-82413809D01*
X142292485Y-82270952D01*
X142340104Y-82080476D01*
X142387723Y-81985238D01*
X142482961Y-81890000D01*
X142625819Y-81842380D01*
X142721057Y-81842380D01*
X142863914Y-81890000D01*
X142911533Y-81937619D01*
X143482961Y-82270952D02*
X143387723Y-82223333D01*
X143340104Y-82175714D01*
X143292485Y-82080476D01*
X143292485Y-82032857D01*
X143340104Y-81937619D01*
X143387723Y-81890000D01*
X143482961Y-81842380D01*
X143673438Y-81842380D01*
X143768676Y-81890000D01*
X143816295Y-81937619D01*
X143863914Y-82032857D01*
X143863914Y-82080476D01*
X143816295Y-82175714D01*
X143768676Y-82223333D01*
X143673438Y-82270952D01*
X143482961Y-82270952D01*
X143387723Y-82318571D01*
X143340104Y-82366190D01*
X143292485Y-82461428D01*
X143292485Y-82651904D01*
X143340104Y-82747142D01*
X143387723Y-82794761D01*
X143482961Y-82842380D01*
X143673438Y-82842380D01*
X143768676Y-82794761D01*
X143816295Y-82747142D01*
X143863914Y-82651904D01*
X143863914Y-82461428D01*
X143816295Y-82366190D01*
X143768676Y-82318571D01*
X143673438Y-82270952D01*
X135266133Y-82721742D02*
X135218514Y-82769361D01*
X135075657Y-82816980D01*
X134980419Y-82816980D01*
X134837561Y-82769361D01*
X134742323Y-82674123D01*
X134694704Y-82578885D01*
X134647085Y-82388409D01*
X134647085Y-82245552D01*
X134694704Y-82055076D01*
X134742323Y-81959838D01*
X134837561Y-81864600D01*
X134980419Y-81816980D01*
X135075657Y-81816980D01*
X135218514Y-81864600D01*
X135266133Y-81912219D01*
X135599466Y-81816980D02*
X136266133Y-81816980D01*
X135837561Y-82816980D01*
X127646133Y-82721742D02*
X127598514Y-82769361D01*
X127455657Y-82816980D01*
X127360419Y-82816980D01*
X127217561Y-82769361D01*
X127122323Y-82674123D01*
X127074704Y-82578885D01*
X127027085Y-82388409D01*
X127027085Y-82245552D01*
X127074704Y-82055076D01*
X127122323Y-81959838D01*
X127217561Y-81864600D01*
X127360419Y-81816980D01*
X127455657Y-81816980D01*
X127598514Y-81864600D01*
X127646133Y-81912219D01*
X128503276Y-81816980D02*
X128312800Y-81816980D01*
X128217561Y-81864600D01*
X128169942Y-81912219D01*
X128074704Y-82055076D01*
X128027085Y-82245552D01*
X128027085Y-82626504D01*
X128074704Y-82721742D01*
X128122323Y-82769361D01*
X128217561Y-82816980D01*
X128408038Y-82816980D01*
X128503276Y-82769361D01*
X128550895Y-82721742D01*
X128598514Y-82626504D01*
X128598514Y-82388409D01*
X128550895Y-82293171D01*
X128503276Y-82245552D01*
X128408038Y-82197933D01*
X128217561Y-82197933D01*
X128122323Y-82245552D01*
X128074704Y-82293171D01*
X128027085Y-82388409D01*
X120051533Y-82670942D02*
X120003914Y-82718561D01*
X119861057Y-82766180D01*
X119765819Y-82766180D01*
X119622961Y-82718561D01*
X119527723Y-82623323D01*
X119480104Y-82528085D01*
X119432485Y-82337609D01*
X119432485Y-82194752D01*
X119480104Y-82004276D01*
X119527723Y-81909038D01*
X119622961Y-81813800D01*
X119765819Y-81766180D01*
X119861057Y-81766180D01*
X120003914Y-81813800D01*
X120051533Y-81861419D01*
X120956295Y-81766180D02*
X120480104Y-81766180D01*
X120432485Y-82242371D01*
X120480104Y-82194752D01*
X120575342Y-82147133D01*
X120813438Y-82147133D01*
X120908676Y-82194752D01*
X120956295Y-82242371D01*
X121003914Y-82337609D01*
X121003914Y-82575704D01*
X120956295Y-82670942D01*
X120908676Y-82718561D01*
X120813438Y-82766180D01*
X120575342Y-82766180D01*
X120480104Y-82718561D01*
X120432485Y-82670942D01*
X112456933Y-82670942D02*
X112409314Y-82718561D01*
X112266457Y-82766180D01*
X112171219Y-82766180D01*
X112028361Y-82718561D01*
X111933123Y-82623323D01*
X111885504Y-82528085D01*
X111837885Y-82337609D01*
X111837885Y-82194752D01*
X111885504Y-82004276D01*
X111933123Y-81909038D01*
X112028361Y-81813800D01*
X112171219Y-81766180D01*
X112266457Y-81766180D01*
X112409314Y-81813800D01*
X112456933Y-81861419D01*
X113314076Y-82099514D02*
X113314076Y-82766180D01*
X113075980Y-81718561D02*
X112837885Y-82432847D01*
X113456933Y-82432847D01*
X104786133Y-82670942D02*
X104738514Y-82718561D01*
X104595657Y-82766180D01*
X104500419Y-82766180D01*
X104357561Y-82718561D01*
X104262323Y-82623323D01*
X104214704Y-82528085D01*
X104167085Y-82337609D01*
X104167085Y-82194752D01*
X104214704Y-82004276D01*
X104262323Y-81909038D01*
X104357561Y-81813800D01*
X104500419Y-81766180D01*
X104595657Y-81766180D01*
X104738514Y-81813800D01*
X104786133Y-81861419D01*
X105119466Y-81766180D02*
X105738514Y-81766180D01*
X105405180Y-82147133D01*
X105548038Y-82147133D01*
X105643276Y-82194752D01*
X105690895Y-82242371D01*
X105738514Y-82337609D01*
X105738514Y-82575704D01*
X105690895Y-82670942D01*
X105643276Y-82718561D01*
X105548038Y-82766180D01*
X105262323Y-82766180D01*
X105167085Y-82718561D01*
X105119466Y-82670942D01*
X97191533Y-82645542D02*
X97143914Y-82693161D01*
X97001057Y-82740780D01*
X96905819Y-82740780D01*
X96762961Y-82693161D01*
X96667723Y-82597923D01*
X96620104Y-82502685D01*
X96572485Y-82312209D01*
X96572485Y-82169352D01*
X96620104Y-81978876D01*
X96667723Y-81883638D01*
X96762961Y-81788400D01*
X96905819Y-81740780D01*
X97001057Y-81740780D01*
X97143914Y-81788400D01*
X97191533Y-81836019D01*
X97572485Y-81836019D02*
X97620104Y-81788400D01*
X97715342Y-81740780D01*
X97953438Y-81740780D01*
X98048676Y-81788400D01*
X98096295Y-81836019D01*
X98143914Y-81931257D01*
X98143914Y-82026495D01*
X98096295Y-82169352D01*
X97524866Y-82740780D01*
X98143914Y-82740780D01*
M02*
