M48
; DRILL file {KiCad (5.1.2-1)-1} date Tuesday, January 28, 2020 at 06:09:12 AM
; FORMAT={-:-/ absolute / inch / decimal}
; #@! TF.CreationDate,2020-01-28T06:09:12-07:00
; #@! TF.GenerationSoftware,Kicad,Pcbnew,(5.1.2-1)-1
; #@! TF.FileFunction,Plated,1,2,PTH
FMAT,2
INCH
T1C0.0315
T2C0.0320
T3C0.0394
T4C0.0591
%
G90
G05
T1
X3.452Y-2.849
X3.452Y-2.949
X3.452Y-3.049
X3.452Y-3.149
X3.752Y-2.849
X3.752Y-2.949
X3.752Y-3.049
X3.752Y-3.149
T2
X5.3861Y-2.66
X5.3861Y-3.1521
X5.583Y-2.66
X5.583Y-3.1521
T3
X5.63Y-3.78
X5.63Y-3.88
X5.63Y-3.98
X4.19Y-2.89
X4.19Y-2.99
X4.19Y-3.09
X3.71Y-4.03
X3.81Y-4.03
X4.51Y-3.77
X4.51Y-3.87
X4.51Y-3.97
X5.0Y-3.78
X5.1Y-3.78
X5.2Y-3.78
X3.46Y-3.77
X3.46Y-3.87
X3.46Y-3.97
T4
X4.7261Y-3.1102
X4.73Y-3.87
T0
M30
